<?xml version="1.0" encoding="UTF-8"?>
<svg id="Layer_2" xmlns="http://www.w3.org/2000/svg" xmlns:xlink="http://www.w3.org/1999/xlink" version="1.1" viewBox="0 0 3000 3000">
  <!-- Generator: Adobe Illustrator 29.8.2, SVG Export Plug-In . SVG Version: 2.1.1 Build 3)  -->
  <defs>
    <style>
      .st0 {
        fill: #3891cf;
      }
    </style>
  </defs>
  <text/>
  <g>
    <image width="10359" height="11663" transform="translate(1000.844 808.751) scale(.044)" xlink:href="Sudden North Logo.png"/>
    <g>
      <path class="st0" d="M1503.293,1043.192c0-83.328-.7-115.539-.7-119.741h11.904c0,3.502.7,32.911.7,77.027,14.005-51.118,50.419-81.229,91.033-83.33v12.604c-57.421,7.703-90.333,56.021-90.333,140.05v203.769h-12.604v-230.379Z"/>
      <path class="st0" d="M1632.824,923.451h49.718v-98.734h12.604v98.734h63.724v11.204h-63.724v282.896c0,25.909,4.202,49.018,36.413,49.018,7.703,0,18.907-1.4,25.909-3.502v11.204c-8.402,3.502-18.906,4.202-27.31,4.202-29.41,0-47.617-11.205-47.617-60.923v-282.896h-49.718v-11.204Z"/>
      <path class="st0" d="M1826.771,777.8v211.475c8.403-33.611,29.41-72.126,86.132-72.126,39.914,0,79.829,18.207,79.829,103.638v252.785h-12.604v-247.184c0-65.123-20.308-96.635-68.625-96.635-63.023,0-84.731,55.319-84.731,130.946v212.872h-12.604v-495.771h12.604Z"/>
    </g>
    <path class="st0" d="M716.389,1273.571v-475.464h18.207c167.361,400.535,181.369,432.049,191.873,458.658h.7c-2.101-51.815-1.4-137.248-1.4-214.274v-244.385h12.604v475.465h-17.506c-170.862-406.137-182.769-436.951-193.273-462.16h-.7c2.101,59.521,2.101,133.746,2.101,221.276v240.884h-12.604Z"/>
    <g>
      <path class="st0" d="M741.664,689.105v12.381c0,21.441,7.578,32.821,23.369,32.821,16.116,0,22.909-10.987,22.909-37.036,0-25.879-5.71-36.359-28.463-54.031-23.172-18.092-34.789-28.849-34.789-60.79,0-27.225,8.139-53.002,40.973-52.792,30.472.21,39.559,20.039,39.559,48.53v9.708h-20.526v-9.153c0-18.694-3.741-30.913-19.472-30.913-15.825,0-19.892,13.897-19.892,31.521,0,21.306,4.276,28.985,24.371,44.303,29.559,22.469,38.997,34.87,38.997,70.823,0,30.432-8.22,57.887-43.916,57.887-33.808,0-43.76-22.32-43.76-50.898v-12.36h20.641Z"/>
      <path class="st0" d="M913.442,705.911c0,20.622,0,36,.325,43.625h-19.646c-.44-2.943-.88-11.366-.88-17.476-4.912,15.033-15.04,20.073-29.309,20.073-13.091,0-31.887-4.763-31.887-41.858v-125.416h20.641v119.983c0,20.581,5.48,28.45,18.254,28.45,11.766,0,21.86-7.03,21.86-40.873v-107.561h20.641v121.052Z"/>
      <path class="st0" d="M1023.167,522.973v184.906c0,18.261,0,32.354.325,41.656h-19.646c-.44-2.868-.879-11.962-.879-16.332-4.053,9.992-11.542,18.93-28.619,18.93-27.286,0-34.485-21.534-34.485-53.076v-68.212c0-29.228,11.671-48.584,36.873-48.584,14.797,0,22.388,6.373,25.791,12.53v-71.818h20.641ZM960.714,632.07v67.299c0,22.354,5.555,33.714,19.323,33.714,18.119,0,22.49-17.544,22.49-41.184v-54.972c0-18.186-1.833-35.615-21.745-35.615-14.188,0-20.067,11.895-20.067,30.758Z"/>
      <path class="st0" d="M1132.607,522.973v184.906c0,18.261,0,32.354.325,41.656h-19.646c-.44-2.868-.879-11.962-.879-16.332-4.053,9.992-11.542,18.93-28.619,18.93-27.286,0-34.485-21.534-34.485-53.076v-68.212c0-29.228,11.671-48.584,36.873-48.584,14.797,0,22.388,6.373,25.791,12.53v-71.818h20.641ZM1070.154,632.07v67.299c0,22.354,5.555,33.714,19.323,33.714,18.119,0,22.49-17.544,22.49-41.184v-54.972c0-18.186-1.833-35.615-21.745-35.615-14.188,0-20.067,11.895-20.067,30.758Z"/>
      <path class="st0" d="M1179.04,670.972v27.598c0,17.26,3.342,35.622,20.487,35.622,16.231,0,19.417-12.949,19.417-29.654v-1.488h20.296v1.278c0,19.52-4.621,47.806-39.789,47.806-32.556,0-40.708-21.73-40.708-55.2v-63.118c0-25.554,9.127-51.554,41.223-51.554,30.939,0,39.714,23.518,39.714,51.648v37.062h-60.64ZM1219.614,653.835v-21.481c0-15.378-2.219-32.151-19.857-32.151-16.759,0-20.602,14.141-20.602,32.361v21.271h40.459Z"/>
      <path class="st0" d="M1264.496,634.837c0-32.956,0-41.67-.325-49.979h19.646c.44,3.688.879,9.249.879,16.827,4.872-12.659,14.898-19.425,30.128-19.425,17.543,0,32.137,9.844,32.137,39.896v127.378h-20.641v-123.284c0-16.197-5.406-24.939-18.044-24.939-14.303,0-23.139,7.01-23.139,40.264v107.96h-20.641v-114.698Z"/>
    </g>
  </g>
</svg>