<?xml version="1.0" encoding="UTF-8"?>
<svg id="Layer_2" data-name="Layer 2" xmlns="http://www.w3.org/2000/svg" viewBox="0 0 2861.166 1744.211">
  <defs>
    <style>
      .cls-1 {
        letter-spacing: 0em;
      }

      .cls-2 {
        font-family: AcuminConcept-ExtraCond, 'Acumin Variable Concept';
        font-size: 813.572px;
        font-variation-settings: 'wght' 400, 'wdth' 50, 'slnt' 0;
      }

      .cls-2, .cls-3 {
        fill: #fff;
      }

      .cls-4 {
        fill: #25aee4;
      }

      .cls-5 {
        letter-spacing: -.004em;
      }

      .cls-6 {
        letter-spacing: .037em;
      }

      .cls-7 {
        letter-spacing: .006em;
      }

      .cls-3 {
        font-family: AcuminConcept-CondThin, 'Acumin Variable Concept';
        font-size: 733.678px;
        font-variation-settings: 'wght' 100, 'wdth' 67, 'slnt' 0;
        font-weight: 200;
      }
    </style>
  </defs>
  <path class="cls-4" d="M1129.286,2.623c76.933,4.592,155.341,12.306,208.948,69.814,161.554,173.308,304.483,493.237,445.401,698.572,8.487,12.366,91.063,131.693,100.14,125.105,15.129-121.563,11.604-246.99,14.724-370.139.439-17.327,7.708-33.344,8.087-50.663,1.568-71.546,11.391-238.093-1.978-298.943-8.355-38.028-74.073-29.876-110.656-38.001-53.709-11.929-133.629-35.11-90.989-104.405,18.108-29.428,65.98-29.146,98.72-31.341,12.338-.827,24.967.453,37.355,0,41.969-1.535,93.001-2.708,134.479,0,64.036,4.181,184.366,20.902,153.579,110.321-21.978,63.834-154.207-13.135-168.087,69.539-16.945,100.928,4.913,266.992,7.345,372.788,3.858,167.817,18.272,354.33,7.475,520.601-1.396,21.495-15.754,138.171-34.049,142.497l-706.046-930.057-14.841,3.619-15.206,212.073c8.08,65.419-13.021,534.734,8.822,552.235,60.566-1.876,162.657,38.096,114.301,110.472-30.92,46.28-261.807,45.727-311.659,28.063-15.641-5.542-33.59-38.027-35.213-54.016-7.557-74.424,111.075-75.024,160.905-90.481,3.306-18.268,8.98-36.936,10.728-55.398,16.629-175.601,5.325-365.766-.181-541.538-2.828-90.274,4.972-180.382-8.327-270.143-7.941-24.819-185.698-50.992-191.017-119.418-1.906-24.516,26.288-56.823,50.231-61.157,26.828-4.857,96.484-1.822,127.008,0ZM1886.98,1063.18c-8.546-203.381-217.254-323.006-316.85-483.956-55.682-89.984-152.837-361.925-240.489-401.425-29.015-13.075-59.805-11.571-88.926-22.609l646.264,907.991Z"/>
  <text class="cls-3" transform="translate(0 889.924)"><tspan class="cls-5" x="0" y="0">S</tspan><tspan x="258.247" y="0">udd</tspan><tspan class="cls-7" x="1088.763" y="0">e</tspan><tspan x="1349.215" y="0">n</tspan></text>
  <text/>
  <text class="cls-2" transform="translate(1635.148 881.978)"><tspan x="0" y="0">No</tspan><tspan class="cls-6" x="572.75" y="0">r</tspan><tspan class="cls-1" x="781.816" y="0">th</tspan></text>
</svg>