<?xml version="1.0" encoding="UTF-8"?>
<svg id="Layer_2" data-name="Layer 2" xmlns="http://www.w3.org/2000/svg" viewBox="0 0 2716.851 1840.729">
  <defs>
    <style>
      .cls-1 {
        fill: #30b0e5;
      }

      .cls-2 {
        fill: #5c7a92;
      }

      .cls-3 {
        font-family: AcuminConcept-CondThin, 'Acumin Variable Concept';
        font-size: 1211.719px;
        font-variation-settings: 'wght' 100, 'wdth' 67, 'slnt' 0;
      }

      .cls-3, .cls-4 {
        fill: #24afe5;
        font-weight: 200;
      }

      .cls-5 {
        fill: #222936;
      }

      .cls-6 {
        fill: #3972a1;
      }

      .cls-7 {
        fill: #fdfeff;
      }

      .cls-8 {
        fill: #3f5263;
      }

      .cls-4 {
        font-family: AcuminConcept-CondExtraLight, 'Acumin Variable Concept';
        font-size: 439.283px;
        font-variation-settings: 'wght' 200, 'wdth' 67, 'slnt' 0;
      }

      .cls-9 {
        fill: #fff;
      }

      .cls-10 {
        fill: #dbddde;
      }

      .cls-11 {
        fill: #1c618f;
      }

      .cls-12 {
        fill: #25aee4;
      }

      .cls-13 {
        fill: #266ba4;
      }

      .cls-14 {
        letter-spacing: -.013em;
      }

      .cls-15 {
        letter-spacing: -.007em;
      }

      .cls-16 {
        fill: #368cbc;
      }

      .cls-17 {
        fill: #36495b;
      }

      .cls-18 {
        letter-spacing: .013em;
      }

      .cls-19 {
        letter-spacing: .039em;
      }
    </style>
  </defs>
  <g>
    <path class="cls-11" d="M1329.312,909.583v2.411c-13.195,2.539-26.633,3.675-39.958,5.424l.003-3.619c-6.673-.459-13.34-.842-20.032-1.176-.792-.04-1.402-.624-1.487-.628l31.038-1.211,8.917-1.193-90.979-.006c-.062-4.703-.319-10.36-.615-15.066l113.113,15.066Z"/>
    <path class="cls-2" d="M958.007,413.016v.603c-3.413-.223-7.612-.126-11.065,0v-.603h11.065Z"/>
    <path class="cls-2" d="M888.541,413.016v.603c-2.512-.15-8.243-.4-10.451,0v-.603h10.451Z"/>
    <path class="cls-10" d="M946.942,413.016v.603c-1.019.037-2.059-.068-3.074,0v-.603h3.074Z"/>
    <path class="cls-11" d="M922.352,625.744c1.024-.008,2.049,0,3.074,0,5.017.004,9.817.345,14.754.603,148.221,7.736,266.872,122.765,276.02,268.17.296,4.706.553,10.363.615,15.066.002.178-.457.573-.454,1.018.003.457.453.721.454.79.047,5.414-.311,10.321-.615,15.668-8.367,147.338-126.149,263.295-276.635,271.183-4.838.254-9.215.609-14.139.603-1.024-.001-2.049.009-3.074,0-4.688-.04-9.456-.348-14.139-.603-148.797-8.085-269.485-125.796-276.02-272.388-.204-4.577-.009-9.273,0-13.86.002-.803-.008-1.607,0-2.411.047-4.744.354-9.171.615-13.86,8.056-145.168,126.706-261.426,274.791-269.375,4.966-.267,9.758-.563,14.754-.603ZM667.233,981.898c5.823,20.952,13.563,39.968,24.484,58.86,1.748,3.023,9.138,15.715,11.171,17.071,14.397,22.639,33.655,41.79,54.712,58.455,13.978,11.062,28.594,20.825,44.658,28.838,3.473,1.733,13.579,6.971,16.816,7.319,17.763,8.316,37.271,13.823,56.908,16.219l1.983-1.579.125-238.818c7.916-4.97,16.449-11.73,24.794-15.77,2.002-.969,3.847-2.515,6.129-1.134,3.667,2.218,4.227,15.443,7.187,19.62,20.092,19.372,39.724,39.213,59.634,58.752l-1.683,1.637.11,175.571c.378.521,2.944,1.049,3.723,1.049,1.926,0,9.202-1.376,11.524-1.841,26.178-5.241,54.249-18.56,76.693-32.387,17.301-10.659,29.698-20.389,44.262-34.35,27.92-26.764,46.262-53.047,60.86-88.586,72.89-177.452-64.349-369.069-259.121-359.776-171.41,8.179-290.353,167.553-244.969,330.849Z"/>
    <path class="cls-12" d="M627.83,878.19l-32.512,6.398c-.273-.166-1.423-1.819-1.542-2.169-.5-1.467.712-9.323,1.004-11.621,18.676-146.782,148.022-272.334,299.693-283.579,3.096-.23,2.842,1.216,2.673,3.861-.245,3.843-4.363,28.18-6.747,29.555-135.47,11.481-250.589,124.996-262.569,257.554Z"/>
    <path class="cls-12" d="M627.812,944.01c7.675,88.802,62.987,169.75,139.061,216.517,21.545,13.245,46.795,24.977,71.26,31.988,17.624,5.051,35.4,6.03,53.233,9.887,1.658,1.292,6.298,31.292,5.162,32.598-157.018-11.775-293.241-142.179-301.217-297.693l32.501,6.703Z"/>
    <path class="cls-11" d="M1219.273,766.76c1.931,3.761,4.26,7.375,6.061,11.234,15.426,33.051,25.47,68.787,28.723,105.103-.942,1.274-10.736.122-12.885-.103-3.136-.328-18.996-2.433-20.336-4.17-.714-.926-1.645-6.069-1.998-7.683-5.679-25.946-6.82-46.407-17.392-71.838,1.587.326,1.256-.756,1.669-1.649,3.445-7.465,9.261-23.7,13.56-29.522.798-1.081,1.006-1.596,2.599-1.371Z"/>
    <path class="cls-12" d="M888.541,413.619c6.33.378,12.782,1.013,17.193,5.745,13.293,14.26,25.054,40.585,36.649,57.481.698,1.018,7.493,10.836,8.24,10.294,1.245-10.003.955-20.323,1.212-30.456.036-1.426.634-2.744.665-4.169.129-5.887.937-19.591-.163-24.598-.687-3.129-6.095-2.458-9.105-3.127-4.419-.982-10.995-2.889-7.487-8.591,1.49-2.421,5.429-2.398,8.123-2.579,1.015-.068,2.054.037,3.074,0,3.453-.126,7.652-.223,11.065,0,5.269.344,15.17,1.72,12.637,9.078-1.808,5.252-12.689-1.081-13.831,5.722-1.394,8.305.404,21.969.604,30.674.317,13.808,1.504,29.155.615,42.837-.115,1.769-1.296,11.369-2.802,11.725l-58.096-76.528-1.221.298-1.251,17.45c.665,5.383-1.071,44,.726,45.44,4.984-.154,13.384,3.135,9.405,9.09-2.544,3.808-21.542,3.763-25.644,2.309-1.287-.456-2.764-3.129-2.897-4.445-.622-6.124,9.14-6.173,13.24-7.445.272-1.503.739-3.039.883-4.558,1.368-14.449.438-30.096-.015-44.559-.233-7.428.409-14.842-.685-22.228-.653-2.042-15.28-4.196-15.717-9.826-.157-2.017,2.163-4.676,4.133-5.032,2.208-.4,7.939-.15,10.451,0ZM952.468,505.219c-.703-16.735-17.876-26.578-26.071-39.821-4.582-7.404-12.576-29.78-19.788-33.031-2.387-1.076-4.921-.952-7.317-1.86l53.177,74.712Z"/>
    <path class="cls-11" d="M1207.593,1006.003c1.888-5.4,4.045-12.979,5.338-18.571,3.39-14.653,4.074-29.926,8.143-44.446,1.27-1.549,20.045-5.062,23.275-5.508,3.27-.451,6.733-1.387,9.916-.121-2.883,34.141-11.637,66.754-25.156,98.175-1.431.19-1.862-.32-2.737-1.235-4.553-4.762-11.435-18.325-15.448-24.628-.716-1.124-1.795-3.682-3.332-3.666Z"/>
    <path class="cls-11" d="M1176.856,703.484c17.195,20.265,30.335,39.749,42.417,63.276-1.592-.225-1.8.29-2.599,1.371-4.299,5.822-10.115,22.058-13.56,29.522-.412.893-.081,1.974-1.669,1.649-6.066-14.593-14.19-29.167-22.733-42.498-4.446-6.939-11.013-14.438-14.767-21.381-.115-.212.142-.928-.104-1.423-.397-.798-1.438-.735-1.72-1.451-.217-.552-.499-3.123-.359-3.773l11.488-25.211,3.605-.082Z"/>
    <path class="cls-11" d="M1120.914,651.055c-1.756,1.083-2.309,2.703-3.179,4.416-3.842,7.562-7.407,15.992-10.345,23.908-18.379-13.979-39.254-25.794-60.245-35.555l-.602-1.557c-.597-.619-1.178.359-1.242.351-1.201-.145-1.337-.465-1.844-.603-.07-1.232-.091-2.428.289-3.628,2.185-6.891,7.832-14.827,10.219-21.927l3.631-2.166c23.212,10.032,43.118,21.856,63.319,36.76Z"/>
    <path class="cls-11" d="M1176.856,703.484l-3.605.082-11.488,25.211c-.139.65.142,3.221.359,3.773.282.715,1.323.653,1.72,1.451.246.495-.01,1.211.104,1.423-17.001-20.202-35.376-39.934-56.556-56.044,2.938-7.915,6.503-16.345,10.345-23.908.87-1.713,1.424-3.333,3.179-4.416,22.252,16.418,38.187,31.505,55.942,52.429Z"/>
    <path class="cls-11" d="M1057.596,614.294l-3.631,2.166c-2.387,7.1-8.034,15.036-10.219,21.927-.38,1.2-.36,2.396-.289,3.628-17.95-4.883-36.2-14.67-55.327-17.476l12.295-28.926c20.548,4.568,37.962,10.38,57.171,18.681Z"/>
    <path class="cls-11" d="M1207.593,1006.003c1.537-.015,2.616,2.542,3.332,3.666,4.013,6.302,10.895,19.866,15.448,24.628.874.915,1.306,1.425,2.737,1.235-7.817,18.168-16.196,33.448-27.049,50.018-1.576.26-1.795-.376-2.621-1.348-3.758-4.422-12.088-18.458-14.929-23.938-.508-.981-.978-1.891-.892-3.037,8.517-14.55,18.438-35.39,23.975-51.223Z"/>
    <path class="cls-11" d="M1202.06,1085.55c-9.704,14.817-20.031,28.391-31.967,41.581l-3.725-.87c-4.066-7.433-9.502-14.226-13.598-21.619-.609-1.099-1.21-2.106-1.12-3.423,10.879-12.495,23.643-29.772,31.967-43.992-.085,1.146.384,2.057.892,3.037,2.841,5.48,11.171,19.515,14.929,23.938.826.972,1.046,1.608,2.621,1.348Z"/>
    <path class="cls-11" d="M1170.094,1127.132c-12.026,13.291-23.576,23.694-37.499,34.952-1.539-.061-2.161-1.195-2.967-2.216-2.014-2.55-11.849-17.72-12.675-20.113-.499-1.446-.398-2.711-.341-4.186,11.927-11.132,24.324-22.042,35.04-34.35-.091,1.317.511,2.325,1.12,3.423,4.095,7.393,9.532,14.186,13.598,21.619l3.725.87Z"/>
    <path class="cls-11" d="M1024.399,1187.997c-.126,1.464-.058,2.655.478,4.052,1.755,4.568,9.929,15.551,13.089,20.315.591.892,1.477,1.38,1.187,2.751-13.824,4.993-26.735,8.971-41.188,12.053l-15.678-25.36.309-2.964c13.74-2.537,28.692-6.305,41.803-10.847Z"/>
    <path class="cls-11" d="M1000.424,595.613l-12.295,28.926-30.656-3.694-6.23-32.463c16.744.919,32.886,3.609,49.18,7.231Z"/>
    <path class="cls-11" d="M1116.611,1135.568c-.056,1.475-.158,2.74.341,4.186.826,2.393,10.661,17.564,12.675,20.113.807,1.021,1.428,2.155,2.967,2.216-10.881,8.798-20.819,15.531-32.581,22.9-.617-1.079-1.638-1.802-2.354-2.818-2.588-3.677-11.429-16.73-12.682-20.112-.451-1.217-.419-2.328-.333-3.586,10.609-6.685,20.834-14.297,30.43-22.32l1.537-.58Z"/>
    <path class="cls-11" d="M1056.981,1174.137l15.369,26.516c-11.518,5.709-20.847,10.003-33.196,14.463.29-1.371-.595-1.859-1.187-2.751-3.159-4.764-11.333-15.747-13.089-20.315-.537-1.397-.604-2.588-.478-4.052,9.963-3.452,23.063-9.204,32.581-13.86Z"/>
    <path class="cls-11" d="M982.597,1198.844l-.309,2.964,15.678,25.36c-15.407,3.285-30.999,5.326-46.716,6.627l5.02-31.236c8.759-1.198,17.636-2.11,26.328-3.715Z"/>
    <path class="cls-11" d="M1100.013,1184.984c-9.115,5.71-17.639,10.7-27.663,15.668l-15.369-26.516c8.996-4.401,19.183-10.325,27.663-15.668-.086,1.258-.117,2.369.333,3.586,1.253,3.382,10.094,16.434,12.682,20.112.715,1.016,1.736,1.739,2.354,2.818Z"/>
    <path class="cls-11" d="M922.352,625.744c-4.996.039-9.788.336-14.754.603l13.527-97.623,1.743.96-.516,96.06Z"/>
    <path class="cls-12" d="M1267.838,911.993c.085.004.695.589,1.487.628,6.692.334,13.36.717,20.032,1.176l-.003,3.619c-24.375,3.199-48.738,7.032-73.155,9.642.304-5.348.662-10.255.615-15.668,13.602.4,27.306.124,40.906.578,3.53.118,6.895-.117,10.118.025Z"/>
    <path class="cls-12" d="M940.179,626.347c-4.937-.258-9.736-.599-14.754-.603l.608-95.212,14.146,95.814Z"/>
    <path class="cls-11" d="M632.807,895.722c-.26,4.69-.568,9.116-.615,13.86l-95.282-1.199,95.897-12.661Z"/>
    <path class="cls-11" d="M922.352,1198.844v89.501s-1.226.891-1.226.891l-12.913-90.995c4.683.254,9.451.563,14.139.603Z"/>
    <path class="cls-12" d="M632.193,911.993c-.009,4.587-.204,9.284,0,13.86l-94.677-13.559,94.677-.301Z"/>
    <path class="cls-12" d="M939.565,1198.242l-13.531,90.993-.608-90.391c4.924.006,9.301-.349,14.139-.603Z"/>
    <path class="cls-11" d="M679.957,648.711l1.761.494,8.589,9.695.22,1.375-24.24,23.341c-24.256-10.508,5.17-25.328,13.669-34.905Z"/>
    <path class="cls-11" d="M674.61,1147.018h.615c6.151,4.892,10.727,11.978,16.535,17.297-.75,3.221-7.321,9.846-10.693,9.857-2.469.008-11.966-9.285-12.517-11.313-.862-3.177,7.746-7.737,7.287-11.865-.025-.227-1.125-3.793-1.227-3.975Z"/>
    <path class="cls-8" d="M1166.226,646.918c.747-.19,1.213.098,1.853.367,1.652.696,9.491,10.263,9.864,12.042,1.222,5.835-2.855,9.859-8.78,9.221-3.766-.406-10.717-7.974-13.777-10.645-.136-.755,10.084-10.792,10.841-10.985Z"/>
    <path class="cls-2" d="M813.997,573.456c11.808-2.007,9.882,17.587-.01,15.411-4.497-.989-7.851-14.075.01-15.411Z"/>
    <path class="cls-2" d="M775.427,604.646l-10.082,3.579-5.856-10.444,9.392-5.133c1.239,1.445,7.374,11.084,6.546,11.998Z"/>
    <path class="cls-17" d="M1047.145,643.823c-.643-.299-1.605-.071-1.844-1.205.064.008.645-.97,1.242-.351l.602,1.557Z"/>
    <path class="cls-2" d="M675.225,1147.018h-.615c-.066-.119-2.012-.215-1.543-1.795.915.403,1.534,1.299,2.158,1.795Z"/>
    <path class="cls-13" d="M870.713,767.362c-.698,1.005-.605,2.139-.64,3.284-.293,9.58.233,19.171.64,28.655.015.349-.747,2.147-.61,3.907.756,9.682,6.664,21.038,3.364,30.431-2.351,6.692-5.819,5.989-2.066,14.1,2.542,5.493,21.479,30.101,21.42,32.016l-42.395,64.773c1.044.194,1.789-.277,2.665-.696,7.519-3.597,17.577-10.909,24.998-15.569l-.125,238.818-1.983,1.579c-19.637-2.396-39.145-7.903-56.908-16.219.078.008.587-.663,1.449-.598s5.164,2.084,5.321.87l-.008-337.142,39.965-50.946c2.484-1.019,3.63,1.583,4.911,2.736Z"/>
    <path class="cls-6" d="M825.837,815.572l.008,337.142c-.158,1.214-4.463-.805-5.321-.87s-1.37.606-1.449.598c-3.237-.349-13.343-5.587-16.816-7.319-16.065-8.014-30.681-17.776-44.658-28.838l2.052-1.342c.918-52.82.195-105.822.365-158.713l1.272-2.052c4.937,2.491,13.784,7.804,18.424,9.359.54.181,1.875.665,1.871-.027l-21.525-50.914v-28.324c4.034-.642,8.078-1.482,12.147-1.957l53.631-66.743Z"/>
    <path class="cls-9" d="M919.278,843.293c.802-.979,2.445-1.531,2.53-3.544,1.237-.879,7.887,2.616,8.808,4.181,10.493,17.982,19.845,36.641,30.36,54.604.68,1.161,1.378,2.48,2.563,3.215-.032,1.097.344,2.101.89,3.038l24.014,42.158,1.433-.999c1.765-14.32-.78-28.645-1.129-42.991,1.846.507,4.424.733,6.144,1.204,1.74.476,7.731,2.281,8.933,2.994,3.391,2.013,11.043,12.452,14.412,16.001.864.91,1.7,2.011,3.089,2.097v.603c.385,2.09,2.66,3.01,3.688,4.218,10.338,12.152,21.171,23.821,31.967,35.555.437.475.896.843,1.229,1.205.86.934,1.899,2.346,3.074,3.616.415.449.82.79,1.229,1.205,1.134,1.149,1.525,4.165,4.301,3.616.118-.54-.148-1.396.003-1.808,3.69-10.083,4.208-21.121,6.164-31.65.187-1.008-.635-1.571.92-1.518,1.526.052,1.822.608,2.775,1.506,10.269,9.678,18.717,23.978,29.484,33.469l42.417,50.018c-.186-.066-.446.07-.615,0-10.516-4.37-22.428-14.255-32.581-17.476-.455-1.542-2.206-1.327-3.074-1.808-.429-.238-.931-.423-1.229-.603-.361-.217-.919-1.095-1.746-1.582-7.01-4.129-14.157-8.358-21.611-11.673-.941,1.007,5.235,19.302,5.468,22.663.062.902.506,1.675-.852,1.434-8.111-6.346-16.41-12.457-24.611-18.692-.837-.636-1.996-.485-2.139-.588-4.463-3.194-9.616-9.12-14.995-12.118l-41.258-51.758-2.578,48.43,31.778,68.474-2.15-1.201c-19.954-19.907-40.437-39.319-60.551-59.059-19.91-19.54-39.542-39.38-59.634-58.752-2.96-4.177-3.52-17.402-7.187-19.62-2.282-1.38-4.127.165-6.129,1.134-8.346,4.04-16.879,10.8-24.794,15.77-7.422,4.66-17.48,11.972-24.998,15.569-.876.419-1.621.89-2.665.696l42.395-64.773c.059-1.915-18.878-26.523-21.42-32.016-3.754-8.111-.285-7.409,2.066-14.1,3.3-9.393-2.608-20.749-3.364-30.431-.137-1.76.625-3.558.61-3.907l40.856,49.472,1.138.451c2.409-.847,4.32-2.571,5.978-4.426.455-.509.434-1.311.593-1.505Z"/>
    <path class="cls-11" d="M1065.587,996.964l-1.262,3.888c.137,43.573-.113,87.168.126,130.725l1.75,2.183c-22.444,13.828-50.515,27.146-76.693,32.387-2.322.465-9.598,1.841-11.524,1.841-.779,0-3.346-.528-3.723-1.049l-.11-175.571,1.683-1.637c20.114,19.74,40.597,39.151,60.551,59.059l2.15,1.201-31.778-68.474,2.578-48.43,41.258,51.758c5.379,2.997,10.532,8.924,14.995,12.118ZM1038.846,1050.598v.603c.399-.201.399-.402,0-.603Z"/>
    <path class="cls-16" d="M760.059,884.272v28.324c-1.615-.28-1.783.418-2.618,1.352-2.861,3.202-6.808,9.906-9.318,13.765-8.999,13.84-16.741,28.483-25.551,42.441l30.711-19.97c1.253-.337,6.436,3.203,8.005,3.994l-1.272,2.052c-.17,52.891.553,105.893-.365,158.713l-2.052,1.342c-21.057-16.665-40.315-35.816-54.712-58.455.544.363,1.703.279,2.776,1.192,1.997,1.698,2.224,5.792,5.213,5.435l-.612-130.768c7.438-9.565,14.174-19.947,21.887-29.466,2.721-3.358,14.199-17.832,17.194-18.7,3.223-.934,7.378-.718,10.713-1.249Z"/>
    <path class="cls-11" d="M1108.619,937.304c.486.58,1.677,1.21,2.442,2.126,19.954,23.89,38.444,49.06,60.262,71.395-14.598,35.539-32.94,61.822-60.86,88.586l-2.464-.885-.025-91.045c-.131-2.083,1.3-2.267,3.104-2.08.299.18.8.365,1.229.603-.067,2.461,1.961,1.455,3.074,1.808,10.154,3.221,22.065,13.107,32.581,17.476l1.543,1.812c1.107.194,1.011-.161.913-1.2-.69.008-1.234-.396-1.841-.611l-42.417-50.018c1.824-11.804-.338-24.629.613-36.488.148-1.85-.304-1.551,1.846-1.477Z"/>
    <path class="cls-11" d="M1111.078,1005.401c-1.805-.187-3.235-.003-3.104,2.08l.025,91.045,2.464.885c-14.563,13.96-26.961,23.691-44.262,34.35l-1.75-2.183c-.24-43.557.011-87.152-.126-130.725l1.262-3.888c.143.102,1.302-.049,2.139.588,8.201,6.235,16.499,12.345,24.611,18.692,1.358.241.915-.532.852-1.434-.233-3.361-6.409-21.656-5.468-22.663,7.454,3.315,14.602,7.543,21.611,11.673.827.487,1.385,1.365,1.746,1.582Z"/>
    <path class="cls-1" d="M710.265,933.688l.612,130.768c-2.989.357-3.216-3.736-5.213-5.435-1.073-.912-2.231-.829-2.776-1.192-2.034-1.356-9.424-14.048-11.171-17.071-10.921-18.892-18.661-37.908-24.484-58.86,1.204.013,1.71-.811,2.468-1.495,15.257-13.752,28.035-30.603,40.564-46.715Z"/>
    <path class="cls-12" d="M952.468,505.219l-53.177-74.712c2.396.908,4.93.784,7.317,1.86,7.212,3.25,15.206,25.626,19.788,33.031,8.195,13.243,25.368,23.087,26.071,39.821Z"/>
    <path class="cls-11" d="M1060.054,848.114l-2.455-.6-.007,1.501,2.463.304c.081.779.578,1.669.615,2.411l-3.07-.6c-.898,11.242,1.192,24.216-.005,35.25-.148,1.363-.398,3.268-1.843,3.919-4.295-9.067-11.366-20.38-14.432-29.543-2.653-7.928-3.605-17.654-5.241-25.903-2.467-.012-4.56,1.045-7.044,1.228-2.76.204-4.805-.524-7.094-.622.674-8.157-.9-17.638-.019-25.63.195-1.771,3.004-5.119-.596-4.501.115-.729.096-2.259,0-3.013,4.794-.07.238-2.233.065-2.476-.078-.11.577-1.704.586-2.611.137-13.452-1.443-30.566-.068-43.454.142-1.334.993-2.065,1.261-3.286.556.101,2.666.133,2.99-.077,4.504-17.692,21.992-8.816,28.593,2.563,4.353,7.504,15.863,29.278,16.387,36.962.599,8.792-3.901,11.886-11.012,15.754,1.473,4.1,2.085,8.259,1.797,12.619-.348,5.278-3.44,9.457-3.587,14.44-.141,4.795,1.242,10.582,1.716,15.364Z"/>
    <path class="cls-11" d="M1060.669,851.73c.064,1.283.133,2.978,0,4.218-.037.347-1.12,1.402-.615,2.408l1.844.003c.066.519.117,2.026,0,2.411-.028.091-1.186.21-1.211,1.47-.034,1.724,2.476,8.917,3.085,11.455.383,1.597.908,1.621,2.429,1.538,1.833,6.168,3.816,12.796,6.475,18.662,2.911,6.421,7.918,10.844,5.248,18.643.75,1.015,13.759,4.692,15.768,6.261,4.448,3.472,11.026,13.849,14.927,18.505-2.149-.074-1.697-.373-1.846,1.477-.951,11.859,1.21,24.685-.613,36.488-10.767-9.491-19.215-23.791-29.484-33.469-.954-.899-1.249-1.455-2.775-1.506-1.555-.053-.733.51-.92,1.518-1.956,10.529-2.474,21.567-6.164,31.65-2.018-.2-1.566-2.64-4.303-1.808-.41-.415-.814-.757-1.229-1.205,1.288-2.438-.57-5.264-3.074-3.616-.334-.363-.793-.731-1.229-1.205.345-1.073.583-2.145.638-3.284.682-14.101-2.656-46.318,1.041-57.46.716-2.156-1.01-2.63,2.645-2.802,1.387-.881-.382-9.135-3.709-8.167-.567-1.222-1.257-2.377-1.844-3.616,1.446-.651,1.695-2.555,1.843-3.919,1.197-11.034-.893-24.008.005-35.25l3.07.6Z"/>
    <path class="cls-11" d="M995.506,786.646c-1.116,4.927-.441,10.048-.615,15.066-.984-.139-2.074.11-3.215-.144-2.759-.614-6.196-2.532-8.793-2.859-1.247-.157-.784.041-.907.883l10.547,71.032c.388,1.207,1.419.897,2.369.993v32.542c-1.72-.471-4.298-.696-6.144-1.204.348,14.346,2.894,28.67,1.129,42.991l-1.433.999-24.014-42.158c-.546-.937-.922-1.941-.89-3.038.493-16.875-.707-36.286.613-52.759.148-1.85-.303-1.551,1.846-1.477,5.571,6.45,11.963,12.722,17.811,18.999.716.768,1.996,2.318,3.076,2.402l-3.777-31.846-7.39-41.568c-.826-2.16-7.414-2.351-7.259-5.469.022-.44,1.597-5.685,1.793-5.991,2.098-3.279,9.578,2.188,12.074,2.572,2.572.395,10.539.37,13.179.037Z"/>
    <path class="cls-11" d="M965.999,847.512c-2.149-.074-1.697-.373-1.846,1.477-1.321,16.473-.12,35.885-.613,52.759-1.185-.736-1.883-2.054-2.563-3.215-10.516-17.963-19.867-36.622-30.36-54.604-.921-1.565-7.571-5.06-8.808-4.181-.086,2.013-1.728,2.565-2.53,3.544-1.665.01-1.723-.714-1.877-2.079-.814-7.203.671-15.864.033-23.231,4.62.228,19.549-3.255,22.121-2.095,1.581.713,7.651,7.837,9.216,9.643,6.077,7.017,11.187,14.987,17.228,21.981Z"/>
    <path class="cls-11" d="M870.713,767.362c15.745,14.166,27.531,33.384,42.104,48.216,1.853,1.886,1.799,2.266,4.616,2.405.638,7.368-.846,16.028-.033,23.231.154,1.365.212,2.089,1.877,2.079-.159.195-.139.996-.593,1.505-1.657,1.855-3.568,3.579-5.978,4.426l-1.138-.451-40.856-49.472c-.407-9.484-.933-19.075-.64-28.655.035-1.146-.058-2.279.64-3.284Z"/>
    <path class="cls-11" d="M1023.17,750.489c-.268,1.221-1.119,1.952-1.261,3.286-1.375,12.887.205,30.002.068,43.454-.009.907-.664,2.501-.586,2.611.173.243,4.729,2.406-.065,2.476-.274-2.15-3.326-10.107-5.819-9.672-5.372,7.789-7.646,10.036-17.542,9.672l-.311-1.209-1.531.005-.003,1.204c-.577-.051-1.056-.578-1.229-.603.173-5.018-.501-10.138.615-15.066,2.009-.254,4.222-1.183,5.437-2.805,1.563-2.087,8.398-20.256,7.468-21.298-5.044,2.481-6.157-2.22-9.217-3.618.53-2.575-1.045-1.598-1.229-1.808-.246-.279-2.226-5.297-3.074-6.629l-.041-9.905c2.702-.43,1.72-1.203,2.5-2.75,1.14-.576,2.15-.099,1.844-2.411,6.496-5.168,13.859-3.784,17.543,3.593,1.689,3.382,2.173,10.699,6.432,11.472Z"/>
    <path class="cls-11" d="M1066.202,875.233c-1.521.083-2.046.059-2.429-1.538-.609-2.538-3.119-9.731-3.085-11.455.025-1.26,1.183-1.379,1.211-1.47,2.039,4.6,2.877,9.666,4.303,14.463Z"/>
    <path class="cls-11" d="M997.351,737.833c-.78,1.547.202,2.319-2.5,2.75l.041,9.905c-.674-1.059-3.733-3.004-3.556-5.021,1.475-3.187,2.837-6.029,6.015-7.634.778-1.543.328-1.204,1.844-2.411.305,2.311-.704,1.835-1.844,2.411Z"/>
    <path class="cls-11" d="M1060.054,848.114c.039.395-.041.811,0,1.205l-2.463-.304.007-1.501,2.455.6Z"/>
    <path class="cls-11" d="M1061.899,858.359l-1.844-.003c-.505-1.006.577-2.061.615-2.408.901.563,1.108,1.453,1.229,2.411Z"/>
    <path class="cls-11" d="M997.965,757.117c.184.21,1.76-.767,1.229,1.808-.345-.158-1.316.119-1.844-.003l.615-1.805Z"/>
    <path class="cls-11" d="M1021.326,805.328c3.6-.618.791,2.73.596,4.501-.881,7.992.693,17.473.019,25.63-2.529-.107-4.883-.286-6.813,1.594,3.497,7.946,4.39,17.079,8.042,24.921-1.856-.336-1.19.923-1.23,2.082-.691,20.327,1.027,41.048-.615,61.194-1.39-.086-2.226-1.187-3.089-2.097-3.369-3.549-11.021-13.988-14.412-16.001-1.201-.713-7.193-2.518-8.933-2.994v-32.542c3.063.311,16.194.174,16.606-3.932.275-2.737-9.759-18.014-11.543-22.426-1.469-3.634-4.585-13.629-3.557-17.056.625-2.083,6.396-7.734,8.322-9.324,4.302-3.552,15.789-8.376,16.605-13.552Z"/>
    <path class="cls-11" d="M1023.17,861.975c.268.575.926,1.868,1.229,2.411l-.589,2.071.964.908c.357.093.778-.577.855-.569,3.719.395,6.721,7.164.615,10.245-.342.173-1.179-.038-1.568.556-1.071,1.634.495,3.953,2.435,3.637l.362-.577c.683.997,2.591,2.639,3.575,4.028,2.876,4.064,14.079,21.864,17.759,22.965,3.337.998,9.721-3.92,10.948-6.521.752-1.592-1.324-5.413-2.16-7.215,3.327-.967,5.096,7.287,3.709,8.167-3.654.172-1.929.645-2.645,2.802-3.697,11.142-.359,43.359-1.041,57.46-.055,1.14-.293,2.211-.638,3.284-10.796-11.734-21.629-23.403-31.967-35.555l-.267-3.654-3.422-.564v-.603c1.641-20.146-.076-40.868.615-61.194.039-1.159-.627-2.418,1.23-2.082Z"/>
    <path class="cls-11" d="M1025.014,930.072c-1.028-1.209-3.303-2.128-3.688-4.218l3.422.564.267,3.654Z"/>
    <path class="cls-11" d="M1058.21,966.832c2.504-1.648,4.361,1.178,3.074,3.616-1.175-1.269-2.214-2.682-3.074-3.616Z"/>
    <path class="cls-11" d="M1062.513,971.653c2.738-.832,2.286,1.608,4.303,1.808-.151.412.115,1.268-.003,1.808-2.776.548-3.166-2.468-4.301-3.616Z"/>
    <path class="cls-5" d="M1115.381,1007.811c-1.113-.353-3.14.653-3.074-1.808.868.481,2.619.266,3.074,1.808Z"/>
    <path class="cls-2" d="M1148.578,1025.287c.607.215,1.151.62,1.841.611.098,1.039.194,1.394-.913,1.2l-1.543-1.812c.169.07.429-.066.615,0Z"/>
    <path class="cls-9" d="M1038.846,1050.598c.399.201.399.402,0,.603v-.603Z"/>
    <path class="cls-7" d="M760.059,912.596l21.525,50.914c.004.691-1.33.208-1.871.027-4.641-1.555-13.487-6.868-18.424-9.359-1.569-.791-6.752-4.331-8.005-3.994l-30.711,19.97c8.809-13.958,16.552-28.601,25.551-42.441,2.509-3.859,6.457-10.563,9.318-13.765.834-.934,1.003-1.632,2.618-1.352Z"/>
    <path class="cls-11" d="M996.121,802.315l.003-1.204,1.531-.005.311,1.209c-.61-.022-1.24.054-1.844,0Z"/>
    <path class="cls-11" d="M1026.244,877.041c.032.998.707,2.852,1.229,3.616l-.362.577c-1.94.316-3.506-2.002-2.435-3.637.389-.594,1.226-.383,1.568-.556Z"/>
    <path class="cls-11" d="M1021.111,853.537c-.077-.008-.498.662-.855.569l-.964-.908.589-2.071c.237.423,1.772.898,1.229,2.411Z"/>
  </g>
  <text class="cls-4" transform="translate(68.824 373.829)"><tspan class="cls-14" x="0" y="0">S</tspan><tspan x="173.083" y="0">udde</tspan><tspan class="cls-15" x="895.692" y="0">n</tspan></text>
  <text/>
  <text class="cls-3" transform="translate(0 1238.948)"><tspan x="0" y="0">N</tspan></text>
  <text class="cls-3" transform="translate(1324.795 1230.48)"><tspan class="cls-19" x="0" y="0">r</tspan><tspan class="cls-18" x="305.333" y="0">t</tspan><tspan x="537.948" y="0">h</tspan></text>
</svg>