<?xml version="1.0" encoding="UTF-8"?>
<svg id="Layer_1" data-name="Layer 1" xmlns="http://www.w3.org/2000/svg" viewBox="0 0 996.095 920.328">
  <defs>
    <style>
      .cls-1 {
        fill: #373592;
      }

      .cls-2 {
        fill: #f90709;
      }

      .cls-3 {
        fill: #f20f15;
      }

      .cls-4 {
        fill: #453b91;
      }

      .cls-5 {
        fill: #f11218;
      }

      .cls-6 {
        fill: #313898;
      }

      .cls-7 {
        fill: #f70b0e;
      }

      .cls-8 {
        fill: #f21015;
      }

      .cls-9 {
        fill: #fa0608;
      }

      .cls-10 {
        fill: #fb0405;
      }

      .cls-11 {
        fill: #f50c10;
      }

      .cls-12 {
        fill: #ef141b;
      }

      .cls-13 {
        fill: #fa0506;
      }

      .cls-14 {
        fill: #f30e13;
      }

      .cls-15 {
        fill: #3b3692;
      }

      .cls-16 {
        fill: #f6060a;
      }

      .cls-17 {
        fill: #f21116;
      }

      .cls-18 {
        fill: #e11a27;
      }

      .cls-19 {
        fill: #fb0304;
      }

      .cls-20 {
        fill: #f40d11;
      }

      .cls-21 {
        fill: #d7283a;
      }

      .cls-22 {
        fill: #323999;
      }
    </style>
  </defs>
  <g id="OAIbrD.tif">
    <g>
      <path class="cls-6" d="M661.803,109.806c4.558-.544,9.451-1.754,14.051-1.984,23.074-1.151,46.181,1.659,68.549,6.837l-17.319-23c-15.729-26.88-25.02-57.748-27.871-88.74,19.992,21.953,40.812,44.444,48.384,74.059,3.085,12.068,3.694,24.55,3.812,37.001,5.26,5.31,16.03,18.754,23.594,19.18,3.444.194-.195-3.347-.986-4.861-14.597-27.941-21.242-56.692-18.911-88.458,25.084,32.355,49.48,69.951,40.064,113.1,6.128,6.772,12.074,15.969,19.864,20.828,6.503,4.057.338-5.952-.673-9.045-7.507-22.972-9.037-62.356-4.376-86.043.204-1.037.066-3.139,1.463-2.879,20.588,36.941,36.168,79.504,21.574,121.71l18.27,25.513h2.918c-5.12-16.463-7.196-35.128-6.782-52.477.261-10.922,3.397-42.017,7.95-51.326.691-1.413,1.014-2.151,2.248-.677,1.349,1.611,5.335,12.278,6.328,15.052,9.891,27.636,16.39,66.007,6.837,94.324-1.261,3.738-7.132,12.574-6.862,15.44,5.689,7.049,7.698,17.466,12.453,24.541.965,1.437,1.845,3.558,4.072,3.207.237-27.562-1.21-58.267,8.306-84.496.408-1.124,4.073-11.775,6.271-9.753,9.294,33.244,17.393,75.055,4.888,108.367-2.067,5.507-5.451,10.182-7.866,15.484-.031,2.398,5.473,19.032,7.028,21.262.933,1.337,1.783,2.915,3.725,2.581.509-31.842,9.974-63.438,29.153-88.925,1.981-1.483,2.849,10.619,2.962,12.608,2.112,37.143-3.105,78.502-27.039,108.085,3.32,5.216.002,17.618,7.553,17.796,4.813-28.408,19.301-53.061,36.979-75.27,2.327-2.924,5.323-7.242,7.752-9.74.924-.951,1.271-1.841,2.892-1.471-1.034,41.929-14.434,85.064-46.487,113.423,1.328,6.648.23,13.522.834,20.17.138,1.516,1.202,10.211,3.859,8.274,8.542-24.241,24.399-46.906,41.3-66.09.848-.962,11.326-12.691,12.152-11.646-5.417,41.653-18.275,85.532-56.195,108.509l-1.127,32.388c1.813.428,1.882-.614,2.748-1.615,4.403-5.089,9.024-14.604,13.388-20.624,10.773-14.859,23.723-29.237,38.381-40.333,1.631-1.234,12.421-9.422,13.5-8.355-14.101,38.253-30.434,83.456-71.689,99.33-1.405,7.277-4.98,14.538-5.781,21.914-.124,1.138-1.108,11.503,1.679,9.465,12.911-23.841,33.897-41.367,57.31-54.453,3.074-1.718,25.889-13.481,27.227-12.121.345,1.725-.456,2.801-1.126,4.209-7.005,14.713-33.607,47.297-46.586,57.393-13.376,10.405-28.064,16.042-44.103,21.007l-11.135,32.605c-.692,2.931,2.69.586,3.75-.149,2.847-1.976,4.216-5.012,6.251-6.868,19.168-17.477,53.276-40.295,79.265-43.676.903-.118,2.941-1.07,2.019,1.052-.574,1.322-4.946,4.658-6.322,6.316-25.615,30.853-48.375,63.202-93.675,62.299-.767,4.005-2.37,8.244-4.118,11.913-2.739,5.748-9.842,15.63-11.349,20.722-.417,1.408-.708,2.642,1.271,2.245,23.673-18.858,55.413-33.79,85.019-40.348.858-.19,2.55-1.18,2.939.024-16.323,18.323-32.428,38.739-54.537,50.415-15.547,8.211-32.058,11.02-49.44,12.755-3.3,8.217-17.084,18.733-17.517,27.201-.062,1.213.006,2.02,1.464,1.452,2.989-1.165,9.357-6.484,13.761-8.595,11.481-5.505,23.91-8.071,36.086-11.532l40.058-6.589c-27.532,32.32-68.083,51.117-111.11,48.264-4.619,8.32-19.151,12.746-17.636,23.179,5.607-1.844,11.063-4.048,16.783-5.569,13.737-3.653,30.175-6.758,44.388-7.119,6.029-.153,15.594.008,21.417,1.015,1.663.288,2.721,1.05,2.43,2.899-22.099,9.875-41.912,24.837-65.653,31.051-15.23,3.986-33.54,4.641-48.699.295l-1.973.461c-4.934,4.963-11.57,7.948-16.824,12.408-1.408,1.195-8.414,7.58-6.785,9.239,30.322-8.722,62.467-8.262,93.284-2.429-4.734,3.797-10.24,6.948-15.662,9.605-27,13.231-61.679,20.242-91.24,12.756-4.021-1.018-10.273-4.794-13.833-4.206-2.394.395-26.096,10.779-22.113,14.398,7.91.366,15.971-.461,23.876-.036,1.845.099,3.415.953,4.302,1.013-2.163,13.955,12.457,15.543,17.493,25.265-24.456.524-50.782-.359-70.494-16.554-1.246-.124-20.143,6.698-21.355,7.796-.984.891-1.764,1.411-1.441,2.922,29.802,3.304,58.999,12.663,84.538,28.203.265,1.332-.333,2.331-1.627,2.722-3.381,1.023-14.241,1.872-18.299,2.109-46.291,2.707-89.244-12.822-122.782-44.423,8.682-35.003,38.732-64.888,70.146-81.089,4.163-2.147,9.76-5.478,14.252-5.183-15.035,28.054-31.319,56.478-57.322,75.816-.381,2.044.773,1.592,2.223,1.254,16.097-3.744,33.834-10.809,48.271-18.79,3.432-12.976,7.511-25.654,14.104-37.399,2.455-4.373,12.463-20.034,16.053-21.36,9.097-3.358,27.555-18.787,36.009-25.715.615-.504,1.654-.336,1.892-.522-5.334,24.655-21.332,44.815-32.06,67.05,11.16-6.27,22.334-12.754,32.116-21.081,2.14-31.053,11.194-60.582,29.67-85.724,3.935-5.355,13.435-17.034,18.634-20.445.796-.522,2.587-1.868,3.161-.518-3.814,26.632-10.842,52.497-18.475,78.205,1.333,1.361,18.729-11.985,20.404-14.085,9.545-11.969,2.714-25.884,1.958-38.88-.882-15.179,5.301-33.991,10.676-48.09,9.215-4.599,10.985-19.756,20.408-24.293,2.97,25.386-1.298,43.428-2.903,67.548-.089,1.337-.99,5.93,1.431,5.324,2.481-1.006,17.192-22.896,17.792-25.978.883-4.537-2.529-11.602-3.4-16.57-5.921-33.771,1.245-69.819,18.197-99.309,2.343-.555,2.096.833,2.595,2.686,1.628,6.038,2.542,16.53,3.208,23.067,1.621,15.906,1.941,32.116,1.958,48.088,2.179.303,2.511.032,3.755-1.581.653-.847,8.485-18.499,8.692-19.548.908-4.597-3.417-8.53-5.144-12.897-10.264-25.959-9.155-68.217-2.946-95.222.635-2.762,2.797-12.625,4.368-14.095.655-.613,1.771-1.015,1.949.056,7.913,23.57,13.73,47.747,17.513,72.355,2.49.391,1.509-.225,2.027-1.366,1.141-2.512,4.126-11.357,4.528-13.926,1.473-9.399-3.356-11.459-7.069-18.702-13.015-25.389-16.671-52.798-17.029-81.198l2.455-26.699c1.127-2.031,2.051.36,2.643,1.276,10.643,16.467,15.935,42.845,25.845,59.669.788,1.338,1.182,2.596,3.111,2.234v-37.412c-31.884-26.126-48.586-67.48-52.482-107.86l1.93-.467c2.529,5.064,7.523,8.437,11.208,12.597,13.088,14.776,24.29,31.065,34.983,47.622,2.209.404,1.33-.96,1.443-2.404.914-11.669-6.198-25.227-6.028-37.238-32.244-15.324-57.356-45.263-69.543-78.644-1.411-3.866-3.905-10.458-4.131-14.35-.221-3.794,7.207,2.873,8.662,3.988,16.394,12.56,31.503,26.877,47.25,40.215,2.049.384,1.58-.77,1.251-2.22-1.181-5.203-10.36-28.018-14.452-30.257-2.885-1.579-8.676-2.133-12.118-3.431-19.836-7.481-29.585-14.443-45.155-28.215.515-2.187-.522-3.294-1.326-4.985-5.671-11.924-16.522-20.868-22.97-31.941,18.418,3.643,33.359,15.488,49.856,23.514,1.768.86,9.115,4.647,10.396,3.685-3.979-7.955-17.283-31.373-25.808-32.975-7.404-1.391-16.142-.958-23.955-2.284-31.229-5.3-58.652-22.15-83.372-41.017,28.581-2.773,56.385,5.769,83.567,13.118.281-1.51-.147-2.251-.92-3.443-2.517-3.881-16.986-17.68-21.072-19.735-5.25-2.64-17.419,2.248-24.176,2.764-24.028,1.835-44.476-3.287-66.557-11.649.63-2.808-.403-2.37-1.79-3.533-4.978-4.176-13.176-6.806-15.703-12.986Z"/>
      <path class="cls-6" d="M87.459,544.173c-.454-8.318-3.943-17.009-6.071-25.031-29.233-11.745-45.778-38.111-58.241-65.655-3.055-6.751-11.683-25.97-12.432-32.286-.416-3.506,4.909.879,6.108,1.683,25.892,17.386,41.707,40.402,58.511,65.91.744,1.13-.239,2.508,2.401,1.928l-1.446-33.04c-35.596-21.553-51.179-66.164-55.477-105.846-.091-.841-1.124-2.943,1.036-2.002,1.593.694,12.957,13.598,15.051,16.051,10.758,12.602,20.724,26.78,28.574,41.394,2.409,4.485,6.434,16.305,8.862,19.321,2.216,2.754,3.245-4.767,3.392-6.337.678-7.251-.637-14.821.83-22.114-24.629-20.75-37.457-50.95-43.268-82.155-.787-4.228-4.805-30.063-3.216-31.267,1.899-.5,1.877.782,2.732,1.627,3.168,3.132,7.915,9.639,10.847,13.447,16.067,20.866,29.937,44.895,33.518,71.432,1.277,2.067,3.75-.191,4.455-1.433,2.202-3.872,1.019-11.112,3.643-15.428-23.006-29.567-28.856-68.461-27.066-105.168.1-2.057,1.092-13.479,1.472-14.075,1.943-3.048,6.551,5.118,7.73,6.909,15.284,23.202,22.507,53.02,22.918,80.574.881.12,1.241.119,1.96-.459,2.659-2.136,8.944-20.76,8.694-24.272-.183-2.58-4.593-7.54-5.987-10.547-11.408-24.613-8.888-61.313-3.399-87.341,1.869-8.862,4.448-17.542,7.484-26.051,5.197,6.179,7.504,16.38,9.23,24.282,5.081,23.276,4.426,47.22,4.369,70.941,1.377,1.578,5.523-6.216,5.999-7.11,3.733-7.003,6.264-14.847,10.536-21.634-21.096-39.113-9.692-87.026,6.795-125.751,1.743,1.006,2.636,5.091,3.179,7.005,9.835,34.688,5.661,62.23.779,96.571-.206,1.446-.694,2.726,1.361,2.327l18.801-25.949c-14.627-40.964.526-85.485,22.029-120.755.93.675,1.279,1.257,1.466,2.401,4.15,25.354,2.712,63.544-5.396,87.908-1.093,3.283-6.507,10.287.108,6.91,2.484-1.268,18.03-17.009,18.686-19.211-.675-15.554-1.823-29.476,1.827-44.819,6.211-26.111,23.935-46.647,37.263-69.157l1.93.482c1.968,28.108-3.324,53.973-14.862,79.399-1.496,3.296-5.702,9.218-6.508,11.961-.403,1.372.04,1.698,1.386,1.39,7.876-1.803,18.819-13.665,23.67-20.069-3.289-45.392,22.639-80.568,52.664-111.068-4.837,35.351-14.189,70.854-35.974,99.576-1.391,1.834-10.35,10.539-8.715,12.168,30.97-6.383,63.111-9.858,94.257-2.429-19.476,11.171-41.623,20.847-63.932,24.502-16.06,2.631-27.172,2.292-43.141-.027-2.904-.422-7.094-2.203-9.204-2.328-5.185-.306-19.035,13.487-22.663,17.725-.748.874-5.578,6.626-4.88,7.257,27.083-8.299,54.97-15.083,83.567-14.566.125.889.113,1.235-.46,1.959-3.307,4.168-26.067,18.232-31.924,21.524-20.127,11.314-39.4,17.455-62.379,20.224-4.207.507-8.752-.916-12.855.75-3.305,1.342-11.251,11.243-13.674,14.507-2.378,3.203-9.924,14.186-10.855,17.331-.39,1.32.04,1.757,1.372,1.378,16.565-7.255,31.405-17.945,48.19-24.705,5.655-2.277,14.046-5.645,19.976-6.281,2.072-.222,1.517.659,1.246,2.234-19.541,24.339-40.556,49.438-69.828,62.335-5.946,2.62-17.14,4.823-21.736,7.418-5.366,3.031-13.565,24.351-15.003,30.678-1.459,6.42,7.472-4.127,8.543-5.07,13.631-12.01,28.983-25.324,43.284-36.402,1.486-1.151,3.371-2.922,5.315-2.935,1.503,1.72-6.441,22.292-7.908,25.608-9.661,21.841-26.665,43.974-46.187,57.792-6.458,4.571-13.791,7.656-19.573,12.496-.111,13.59-7.855,26.415-5.534,40.138,14.238-22.157,29.579-43.837,48.6-62.182,1.04,6.293-.69,13.197-1.939,19.439-6.858,34.261-23.517,67.02-49.859,90.076l.784,36.239,2.137-2.223,25.963-60.335,2.983-.607c3.366,33.995,2.605,73.91-13.072,104.996-1.741,3.453-8.384,11.932-9.068,14.247-1.285,4.348,2.198,17.356,4.422,21.397.617,1.12-.041,1.638,2.162,1.239,3.619-18.232,6.581-36.803,11.949-54.627.546-1.812,6.046-19.32,7.485-18.252,9.678,31.075,13.502,73.567,3.421,104.953-1.435,4.468-7.682,14.582-7.14,17.725.208,1.207,8.839,20.847,9.796,22.36.762,1.206.9,2.058,2.677,1.686l.987-40.312,3.188-27.908,2.62-9.506c20.064,33.797,27.746,78.248,14.79,115.944,4.744,7.18,8.717,16.032,14.406,22.492.725.823,4.832,5.546,5.797,4.397-.565-10.579-3.295-20.999-3.872-31.586-.53-9.71-.593-22.406-.05-32.098.29-5.18,1.18-14.807,2.849-19.508.488-1.375-.287-1.637,2.035-1.34,5.465,13.811,13.226,26.522,18.232,40.571,3.997,11.219,9.084,28.804,9.085,40.565.002,19.482-11.126,31.85,7.765,47.534l14.491,9.308c-6.721-25.092-15.93-51.462-18.219-77.499-.079-.904-.88-3.041,1.204-2.17.878.367,11.196,10.943,12.661,12.61,22.546,25.674,35.376,59.377,36.623,93.593,1.192,4.159,24.181,18.454,29.01,20.551,1.271.552,3.544,1.36,2.853-.904-13.296-22.303-27.192-44.787-33.834-70.198l1.413-2.145c4.352-1.27,14.918,8.496,18.369,11.565,16.289,14.487,34.637,36.852,43.082,57.011,2.588,6.177,5.802,22.514,9.354,25.63,6.199,5.438,36.09,15.314,44.953,17.245,1.334.291,3.609,1.137,3.16-1.215-19.53-14.931-34.695-35.922-46.805-57.18-2.219-3.896-8.503-14.212-9.537-17.677-.388-1.301.123-1.812,1.424-1.424,5.161,1.539,19.055,9.585,24.146,12.787,23.928,15.054,43.21,36.01,54.105,62.022-2.709,4.69-3.928,9.042-7.37,13.523-2.025,2.636-7.517,8.292-10.099,10.308-6.216,4.853-23.149,11.454-26.825,15.935-1.338,1.631-1.664,2.848-1.381,4.934-4.696,1.931-9.229,4.308-14.15,5.772-25.272,7.517-52.248,8.257-78.168,3.94-1.893-1.804,9.714-8.19,11.005-8.907,22.236-12.356,48.624-17.988,73.541-22.189.551-2.245-.446-1.599-1.23-2.22-5.562-4.404-15.228-4.279-21.438-8.3-8.575,6.97-17.98,11.528-28.803,13.977-2.169.491-4.106.138-5.869.435-1.989-4.731-8.617-8.319-12.952-10.857-8.193-4.796-18.389-10.98-27.6-4.913-6.849,4.511-.716,11.639-.264,17.713-15.702-.796-31.393-1.562-46.646-5.841-1.136-1.093,14.112-7.628,15.592-8.206,25.596-9.999,53.308-12.023,80.613-12.195,4.193-4.02-19.839-13.217-22.002-14.321-39.524,16.532-84.704,4.45-119.876-16.782.167-1.517,1.444-1.493,2.52-1.839,3.52-1.132,10.482-1.635,14.49-2.031,25.785-2.543,52.41-1.677,77.249,5.82,3.233-2.978-23.292-19.99-24.99-22.206-43.804,12.109-80.012-13.557-116.887-32.221-1.485-1.523.139-1.71,1.463-1.904,28.04-4.114,57.071,1.785,83.55,10.7,1.646.145,1.579.04,1.507-1.507-.316-6.815-15.158-15.654-19.096-21.619-35.195,3.241-69.907-10.367-96.07-33.296-1.786-1.565-12.728-12.116-13.137-13.106-.81-1.96,1.183-1.417,2.307-1.341,17.457,1.184,50.909,8.843,67.184,15.43,7.382,2.988,13.536,7.792,20.874,10.699,3.191-3.582-16.435-23.427-17.476-28.673-45.296.645-76.094-28.938-103.016-61.221-.407-2.026.916-1.61,2.349-1.382,19.176,3.057,50.065,17.255,66.941,27.333,3.645,2.177,14.236,10.721,16.727,11.46,1.426.423,1.652-.107,1.452-1.446-.41-2.737-8.685-17.698-10.703-21.861,4.263.02,8.651,6.181,9.83,9.587,8.287,2.445,3.71-14.984,2.327-19.314-1.244-3.893-6.043-10.353-7.073-13.334-6.254-18.1-13.901-36.168-21.574-53.963-4.564-2.884-6.348-7.994-12.665-6.545Z"/>
      <path class="cls-19" d="M476.186,822.09l20.894,67.06,19.421-66.104c4.698-3.833,10-.836,14.593-.877,5.333-.047,11.171-1.792,17.002-.073l-35.573,97.228-31.99-1.005-36.411-94.777c-.124-.283,2.283-1.452,2.425-1.452h29.64Z"/>
      <path class="cls-9" d="M702.133,401.327c13.239,1.779,24.266,13.263,17.201,26.917-2.648,5.117-6.882,6.637-11.449,8.949-1.029.521-1.823-.504-1.38,2.022,24.447,3.837,26.516,34.085,3.583,42.947-1.494.577-8.891,2.735-9.898,2.735h-49.077l.128-4.728c6.403-1.568,8.969-.976,9.637-8.344,1.703-18.789-1.316-40.188-.104-59.265-.744-4.795-4.305-5.937-8.592-6.468l-.097-4.765h50.049ZM682.211,437.282c22.691,3.408,23.414-33.494,0-29.152v29.152ZM682.211,443.112v29.638c0,8.453,14.733,6.782,18.373-2.035,5.69-13.779-1.924-29.973-18.373-27.603Z"/>
      <path class="cls-10" d="M331.385,484.897l.042-4.819c8.764-.083,10.087-4.411,10.683-12.151,1.027-13.351,1.296-39.328-.139-52.402-.779-7.101-2.444-8.488-9.514-9.435l-.1-4.762h49.077c3.1,0,13.983,3.618,17.208,5.144,27.12,12.83,26.132,54.274,2.056,69.507-5.073,3.21-19.391,8.918-25.094,8.918h-44.218ZM366.044,408.29c-1.936.647-2.399,3.366-2.607,5.167-1.402,12.146-1.08,40.031.033,52.475.614,6.865,2.052,12.683,10.155,12.203,24.456-1.447,27.144-51.021,11.215-64.668-4.515-3.868-13.007-7.113-18.797-5.177Z"/>
      <path class="cls-13" d="M568.165,410.416c24.992,24.592,11.313,73.598-26.347,76.46-66.65,5.064-61.538-93.875,1.899-87.483,7.495.755,19.086,5.747,24.448,11.023ZM533.265,406.403c-18.282,3.701-16.531,43.151-12.111,56.366,3.613,10.803,14.887,23.801,26.499,14.393,11.637-9.427,9.714-41.748,5.055-54.691-2.992-8.312-9.112-18.159-19.443-16.068Z"/>
      <path class="cls-2" d="M452.376,401.327l1.425,4.819-8.689,2.029c-1.564,2.174,15.475,43.096,17.954,48.551l14.974-43.342-.042-5.127-8.583-2.111,1.425-4.819h29.64l-.132,4.726c-2.469.9-5.03,1.334-7.182,3.023-7.095,5.572-25.059,58.795-30.114,70.944-.797,1.916-1.941,3.699-2.571,5.689l-10.399.024-27.179-71.455c-1.228-1.779-2.334-4.356-4.074-5.642-3.807-2.813-8.268-.364-6.783-7.309h40.33Z"/>
      <path class="cls-2" d="M640.197,402.531l3.111,20.119-5.847.609c-1.995-3.958-3.623-9.468-6.766-12.692-7.932-8.134-22.545-4.637-21.413,7.768.97,10.62,18.362,14.109,26.208,19.5,15.722,10.801,15.893,33.889-.588,43.972-12.964,7.931-28.65,6.174-42.115.675-.764-.658-4.74-17.809-4.803-19.594-.105-3.025,4.016-4.925,5.794-3.813.836.523,6.168,11.934,9.332,15.029,16.675,16.31,33.682-3.778,21.278-16.418-9.773-9.959-33.558-10.389-33.6-31.58-.051-25.788,29.762-31.61,49.407-23.575Z"/>
      <path class="cls-2" d="M314.948,423.584c-.588-12.362-18.731-25.524-26.723-11.489-7.788,13.675,15.726,19.666,23.644,24.78,23.881,15.426,13.99,46.979-13.159,49.846-9.823,1.037-18.541-.552-27.579-4.252l-4.834-22.812,5.748-.979c3.624,10.612,12.155,22.876,24.865,21.379,10.669-1.257,11.772-16.255,4.993-23.013-9.024-8.997-29.858-8.924-32.457-27.3-3.176-22.457,15.482-31.764,35.199-30.345,3.484.251,12.5,1.324,13.864,4.601,1.026,2.463,3.213,17.926,1.277,19.25l-4.837.335Z"/>
      <path class="cls-22" d="M102.036,600.534c-3.726,2.648,8.723,11.977,7.775,16.52-2.467-.416-5.633.362-8.249-.015-42.998-6.191-61.928-37.159-87.953-67.534-.418-2.426,1.752-1.397,3.145-1.201,21.077,2.976,50.887,21.267,67.28,34.762,6.449,5.309,12.624,11.064,18.003,17.467Z"/>
      <path class="cls-22" d="M84.543,550.003c.323,4.221-1.632,8.461-1.944,12.633-26.449-8.789-42.953-22.91-59.688-44.779L0,482.958c26.718,9.023,54.487,26.447,72.855,48.122,3.154,3.722,11.356,14.589,11.688,18.923Z"/>
      <path class="cls-13" d="M542.269,862.903l32.065.491c.035,2.545,10.339,8.781,8.746,10.193-4.111.724-20.297-1.373-22.347.977-1.43,1.639-1.752,7.29.486,8.746h25.753v11.661h-27.211v10.689h29.64c2.374,2.982,2.338,10.733,0,13.604h-47.133v-56.361Z"/>
      <path class="cls-16" d="M453.627,879.225c-1.475,2.573-10.01,2.014-12.921,3.149-5.177-4.485-6.591-8.046-14.515-6.775-11.81,1.894-11.916,32.52,3.617,30.825,7.992-.872,8.734-10.292,10.074-10.561l14.845,3.066c-.642,18.572-19.979,24.573-35.897,19.866-27.588-8.159-24.181-55.976,5.325-57.869,4.677-.3,12.403.158,16.786,1.749,4.397,1.597,15.627,11.417,12.685,16.55Z"/>
      <path class="cls-1" d="M87.459,544.173c6.317-1.449,8.101,3.661,12.665,6.545,7.673,17.795,15.32,35.863,21.574,53.963,1.03,2.981,5.829,9.441,7.073,13.334,1.383,4.33,5.96,21.759-2.327,19.314-1.179-3.406-5.568-9.567-9.83-9.587-1.662-3.428-3.537-10.138-6.803-10.689.949-4.542-11.501-13.872-7.775-16.52.266-.189,1.36.125,1.938-.005l-10.838-34.338c-1.386-2.246-7.625-2.587-10.537-3.554.312-4.172,2.267-8.412,1.944-12.633l2.785-.072c.385-.441.196-4.551.13-5.759Z"/>
      <path class="cls-15" d="M721.084,826.948c24.311,1.644,46.431,5.697,68.02,17.51.303,2.316.039,1.546-1.334,2.032-2.014.714-4.993,1.132-7.202,1.552-13.92,2.648-27.868,3.868-41.99,4.171-5.035-9.722-19.655-11.31-17.493-25.265Z"/>
      <path class="cls-11" d="M808.218,527.324c-6.858,6.649-17.075,2.473-20.565-5.484-9.153,12.123-25.246,4.191-24.841-10.231.074-2.629,4.825-24.543,5.852-25.342l48.232,11.212c1.404,1.899-5.633,26.892-8.678,29.844ZM788.985,497.654l-16.384-4.016c-.427,7.701-8.434,20.312.028,25.718,12.749,8.145,16.303-13.234,16.356-21.702ZM810.496,502.395l-15.475-2.854c-1.877,7.088-7.831,25.073,5.211,24.195,7.591-.511,8.577-15.704,10.264-21.341Z"/>
      <path class="cls-20" d="M561.081,173.594c-14.309-14.419-2.536-47.28,19.534-46.308,40.899,1.803,25.376,65.605-11.398,51.291-2.532-.986-6.263-3.096-8.136-4.983ZM593.481,138.285c-7.089-6.612-19.898-5.743-25.94,2.135-8.784,11.452-8.43,29.817,7.738,34.032,18.33,4.778,29.665-25.475,18.203-36.166Z"/>
      <path class="cls-20" d="M198.011,462.798c12.997-1.753,24.609,2.649,28.13,16.069,1.214,4.627,2.725,13.997,2.791,18.678.012.866.839,1.593-.528,2.429l-49.141,6.344c-.669-9.29-5.291-21.129-1.616-29.872,3.211-7.64,12.39-12.572,20.365-13.648ZM222.545,493.638c-1.614-15.213-3.461-25.526-21.504-23.679-13.346,1.366-19.065,5.401-18.331,19.304.098,1.847,1.047,9.729,2.373,9.962l37.462-5.587Z"/>
      <path class="cls-3" d="M781.347,318.729c-2.77-6.324,1.535-6.275,3.139-9.961,2.919-6.709-3.54-19.225-12.129-17.019-9.613,2.469-1.553,18.16-.813,24.635.874,7.648-3.414,13.33-10.79,15.286-13.388,3.551-24.955-15.627-21.521-27.35.892-3.045,6.383-10.799,10.036-8.481l1.782,3.804c-2.427,3.013-5.583,5.201-6.258,9.35-.908,5.585,5.106,15.793,10.877,16.523,14.631,1.853,5.417-19.312,5.197-26.698-.341-11.444,8.046-15.151,18.345-12.463,12.114,3.161,18.73,30.493,2.133,32.374Z"/>
      <path class="cls-3" d="M787.173,339.151l6.841,7.221c2.588,5.312,1.215,7.484-.884,12.558,24.128,21.769-9.171,26.13-25.389,30.74l-.966-6.785c6.448-1.984,20.227-3.845,25.545-7.015,3.832-2.284,2.985-8.3.366-11.163-5.687-6.217-20.649,2.596-27.657,3.379-4.478.5-4.444-1.412-4.008-5.543.829-.967,20.828-5.155,24.454-7.12,8.382-4.543,1.71-14.341-8.26-13.126-5.31.647-15.878,5.624-19.754,5.57-2.719-.038-2.714-3.209-2.251-5.202l32.66-10.169c3.121-.14,4.257,6.761-.697,6.655Z"/>
      <path class="cls-3" d="M617.952,154.633l-5.707,27.076c1.867.407,2.325-.949,3.305-2.03,5.238-5.775,9.727-12.283,15.14-17.917l5.733,1.592-4.738,28.077c4.7-2.335,15.318-19.518,19.06-20.181,1.18-.209,2.865,1.002,4.257.757,1.18,1.327-4.191,7.418-5.333,8.75-2.209,2.577-18.277,19.961-19.65,20.295-1.145.242-3.928-1.101-4.504-1.76-2.6-2.972,4.584-22.086,3.741-27.274l-17.125,20.31-6.59-3.47,5.885-34.678c.966-3.191,4.231-.134,6.525.454Z"/>
      <path class="cls-3" d="M739.553,252.647l13.245-9.646c1.263-.226,5.067,3.144,3.827,4.813l-37.981,30.89-3.324-3.346,1.875-3.26c-15.843-2.329-18.035-18.633-6.728-28.605,11.576-10.21,28.958-8.486,29.087,9.154ZM731.436,261.062c7.809-8.953,1.299-21.598-10.349-16.66-6.496,2.754-14.433,10.806-10.565,18.33,4.366,8.492,16.011,3.952,20.914-1.67Z"/>
      <path class="cls-3" d="M285.713,262.375c2.199,5.267-2.713,13.121-7.55,15.284-17.142,7.668-41.613-21.403-19.416-33.02,1.647-.862,4.51.04,4.604-1.693l-12.441-8.928c-1.042-2.134,1.006-6.54,3.675-5.211l37.896,31.131c-2.196,2.886-3.215,3.471-6.768,2.436ZM264.95,248.102c-19.243,1.11-2.395,30.515,11.295,23.757,13.523-6.676-1.33-24.332-11.295-23.757Z"/>
      <path class="cls-3" d="M236.782,336.555c7.162,7.934,4.983,19.038-4.519,23.478l2.819,1.997-.942,4.255-47.527-15.54.949-5.784,16.51,4.858c-3.791-11.259,2.676-22.097,15.032-21.384,4.846.28,14.444,4.539,17.677,8.12ZM214.482,335.459c-4.57,1.04-7.052,6.493-6.501,10.878,1.116,8.891,21.14,15.532,26.095,5.794,5.736-11.272-10.366-18.772-19.594-16.672Z"/>
      <polygon class="cls-7" points="415.933 704.51 426.283 716.244 442.162 710.34 434.345 725.353 444.116 738.51 427.262 735.536 417.886 749.209 416.85 731.769 400.391 727.819 415.933 720.543 415.933 704.51"/>
      <path class="cls-7" d="M591.83,728.791l-16.05,4.853-1.453,15.557-9.332-13.393-15.917,3.679,9.703-14.089-7.76-14.083c.843-.823,10.38,4.263,12.389,4.658,6.481,1.276,8.862-8.416,13.835-11.465l-.5,16.528,15.084,7.753Z"/>
      <path class="cls-8" d="M322.638,219.603l-14.43-39.6c-.399-3.164,3.758-4.15,5.673-6.06l16.386,49.325c.648,3.023-3.221,3.507-4.707,5.581l-45.664-28.186,5.871-3.96,36.872,22.9Z"/>
      <path class="cls-1" d="M292.512,847.355c-15.952,2.687-24.866,2.752-40.816,1.943-.452-6.074-6.585-13.202.264-17.713,9.211-6.067,19.408.117,27.6,4.913,4.334,2.537,10.963,6.126,12.952,10.857Z"/>
      <path class="cls-14" d="M206.992,378.492c-7.082-5.825-12.359,5.004-10.269,11.234.944,2.814,4.916,3.702,5.101,5.248l-2.172,4.392c-11.137-2.552-10.059-20.616-3.275-26.627,6.168-5.465,21.671,2.113,29.454,2.287,2.312-.699.354-4.174,3.041-3.844,5.883.722,3.283,10.365-2.445,9.751,4.967,10.539,3.27,26.203-11.924,23.082-2.692-.553-7.509-4.488-7.509-7.059v-18.463ZM211.851,378.977v15.062c0,5.009,12.476,7.351,12.449-3.891-.017-6.898-5.335-12.491-12.449-11.171Z"/>
      <path class="cls-14" d="M793.967,393.554c14.244-3.343,18.089,24.172,6.859,27.748-6.161,1.961-15.787,1.274-22.66,2.651-3.299.661-2.843,1.279-2.663,4.591l-3.943-.432c-2.269-1.565-.878-9.424,2.941-9.34l.016-1.385c-10.238-7.479-8.852-25.536,6.35-23.86,12.016,1.325,9.159,20.993,13.742,22.275,9.283,2.596,9.976-17.298-.218-17.322l-.424-4.925ZM788.141,416.871c.644-.642-2.98-13.46-4.007-14.941-3.176-4.579-10.026-2.973-10.641,2.767-.986,9.208,6.014,13.843,14.649,12.173Z"/>
      <path class="cls-11" d="M477.14,164.223c-8.688,9.25-27.233,10.435-25.267-6.342,1.43-12.205,20.968-8.544,22.228-13.765,1.9-7.876-11.364-9.079-15.157-4.917-2.7,2.963,1.698,6.058-7.045,6.56-2.836-12.838,14.643-16.358,23.535-12.367,6.441,2.891,5.415,21.67,6.701,28.282,12.001,5.557-2.871,10.612-4.996,2.548ZM475.209,150.622c-4.709,1.674-16.655,2.193-17.515,8.306-1.396,9.925,15.63,7.313,17.312-.257.576-2.593.073-5.42.203-8.049Z"/>
      <path class="cls-14" d="M708.169,237.781c-.64.594-1.768,1.186-2.654.802-4.647-3.138-11.848-12.695-15.963-15.133-6.555-3.885-9.515,7.766-4.447,13.188,6.508,6.964,12.741-1.113,17.495,5.81-10.448,8.89-27.058-1.248-26.018-14.297,1.516-19.022,30.649-28.995,36.77-8.103,1.721,5.876-.746,13.615-5.182,17.734ZM689.985,218.623l13.581,12.199c2.455,1.555,4.173-3.642,4.493-5.353,1.96-10.506-12.522-16.678-18.074-6.846Z"/>
      <path class="cls-8" d="M241.979,304.147c7.613,3.494,17.122,1.429,17.454-8.352.108-3.181-5.551-8.802-.352-10.993,3.111-1.311,5.885,7.65,5.899,9.937.109,17.997-19.876,22.097-32.258,10.41-15.605-14.73,1.213-37.418,20.236-26.07.962.574,1.797.778,1.664,2.188l-12.644,22.88ZM246.746,282.87c-12.196-4.682-18.639,7.693-11.453,17.271.819.475,2.006.138,2.819-.334,1.504-.873,9.866-15.124,8.634-16.937Z"/>
      <path class="cls-14" d="M228.58,537.173l-1.179-5.628c24.528.672,23.556,31.818-.565,34.891-22.632,2.883-28.044-27.37-5.851-32.878,2.207.499,7.67,19.36,9.533,22.558.519.892.743,1.919,2.073,1.564,12.016-5.225,8.448-19.883-4.01-20.507ZM219.612,541.261c-14.084,4.904-6.024,23.949,6.843,17.892l-6.843-17.892Z"/>
      <path class="cls-8" d="M355.345,177.194c1.118,1.042,5.645,7.113,4.77,8.438-6.835,4.226-13.823,8.203-20.675,12.399-.545.334-1.932-.011-1.244,1.648.953,2.298,6.621,6.204,9.326,6.289,2.943.092,8.15-3.261,9.536-5.864,2.415-4.533-1.718-9.783,6.392-9.64,3.67,21.881-23.84,28.659-32.752,8.938-9.122-20.188,11.458-34.507,24.647-22.208ZM350.516,181.053c-11.303-9.4-21.245,8.604-15.287,12.883,2.144,1.54,14.1-8.905,17.537-9.323.116-.176-1.868-3.242-2.249-3.559Z"/>
      <path class="cls-17" d="M679.43,667.707l18.399-15.26c-1.99-8.542-15.555-7.544-18.099.503-1.536,4.856,2.553,9.16-3.842,11.696-9.172-17.692,12.422-32.165,27.212-18.435,14.994,13.918,4.025,37.63-14.366,30.883-2.622-.962-11.041-6.366-9.304-9.386ZM700.369,656.035c-2.746,3.752-10.116,7.756-12.361,11.031-2.418,3.527,4.458,5.462,7.319,5.469,8.471.019,12.045-9.69,7.321-16.177l-2.28-.322Z"/>
      <path class="cls-3" d="M417.792,162.199l-24.209,7.867c1.039,8.404,11.544,12.24,17.531,6.343,3.917-3.857.511-10.032,8.702-9.267-.057,20.583-26.5,24.615-33.227,4.558-9.075-27.059,27.236-35.968,31.204-9.502ZM411.073,159.352c-5.653-13.147-22.023-8.664-19.431,5.846l19.431-5.846Z"/>
      <path class="cls-3" d="M352.765,722.973c14.163-10.365-10.134-18.58-13.075-27.252-2-5.896.056-13.402,5.349-16.913,13.802-9.156,39.826,9.669,28.558,25.673l-5.26-1.98c6.595-11.48-10.245-24.932-19.732-18.431-10.332,7.08,8.233,18.415,11.908,22.895,6.243,7.611,4.195,15.415-3.861,19.895-2.778.104-3.641-3.731-3.887-3.887Z"/>
      <path class="cls-17" d="M310.983,658.82c-1.21-1.695,3.703-4.092,4.825-4.382,17.493-4.526,28.057,14.041,16.074,28.704-16.655,20.38-43.708-2.443-25.148-21.256,2.979-.575,15.833,13.317,19.492,14.322,3.708,1.019,5.766-6.61,4.933-9.832-.939-3.632-6.537-7.212-10.152-7.236-3.616-.024-5.534,3.16-10.024-.321ZM324.574,680.236l-16.5-10.709c-1.021,4.297-3.183,6.633-.856,11.052,3.383,6.425,15.236,7.642,17.355-.343Z"/>
      <path class="cls-5" d="M655.007,696.756c5.035-3.812,6.836.599,11.698-.402,8.737-1.799,11.397-13.203,1.344-11.432-6.274,1.105-13.848,7.301-19.806,3.501-15.887-10.133,8.609-33.847,20.866-21.83,1.037,1.017,1.849,1.298,1.006,2.945-2.2,4.299-6.794.055-9.785-.088-8.51-.406-15.449,11.53-8.519,13.523,6.192,1.781,21.492-11.526,27.358-.205,6.022,11.623-13.151,25.624-22.726,16.897-.974-.888-1.769-1.403-1.437-2.909Z"/>
      <path class="cls-17" d="M738.821,588.632c5.405,4.723,13.314-8.304,17.293-10.889,4.205-2.732,8.226-3.226,12.124.42,9.709,9.08-3.996,30.337-16.034,22.864,2.15-6.187,3.314-3.439,7.808-4.808,4.025-1.227,7.106-8.431,5.299-12.212-3.886-6.411-13.354,7.443-16.537,9.722-4.587,3.285-7.293,4.024-12.08.428-11.837-8.89,1.752-31.375,13.989-26.666,1.23.473,2.503.431,2.36,2.275-.388,4.983-6.013,2.933-8.927,3.757-4.133,1.168-9.038,11.841-5.296,15.111Z"/>
      <path class="cls-5" d="M198.241,411.05c1.448,7.143-1.926,5.383-4.361,7.777-3.178,3.125-3.521,13.866,2.092,14.352,7.724.668,5.398-20.514,15.455-22.08,18.801-2.928,19.052,31.52.424,30.075l.108-5.732c8.317.509,10.027-12.836,5.774-17.154-9.175-9.317-8.49,19.315-18.087,20.884-17.384,2.842-17.736-27.275-1.406-28.121Z"/>
      <path class="cls-5" d="M640.42,689.922l-5.717,1.883c-2.91-9.527-19.941.504-16.926,6.605,3.829,7.746,18.711-5.69,27.036,2.195,3.281,3.108,3.111,9.071,1.22,12.914-4.702,9.556-25.386,9.49-23.888,2.313,1.18-5.656,6.788.15,9.098.318,6.283.457,14.597-8.006,8.214-11.154-6.742-3.325-19.528,8.586-26.097-2.087-9.153-14.872,20.927-30.085,27.061-12.986Z"/>
      <path class="cls-17" d="M665.69,184.621c11.453.297,21.722,6.391,15.573,18.98-1.633,3.344-10.153,15.74-12.672,18.419-3.45,3.668-7.489,1.687-6.64-1.694,1.582-6.297,20.679-21.082,12.454-28.377-11.787-10.453-21.544,12.348-27.164,19.464-1.186.703-5.044-2.244-4.886-3.931l19.45-28.261,4.448,1.518-.562,3.881Z"/>
      <path class="cls-2" d="M499.509,166.653c-.52,1.679-4.5,2.014-5.901,1.036l-.9-2.005,1.983-34.455,4.892.37.908,3.474c8.82-7.482,22.064-6.036,23.36,7.236.797,8.16-2.213,17.37-1.015,25.807-1.979-.107-5.919.808-6.711-1.605.325-5.696,2.993-26.045-1.365-29.19-6.101-4.403-15.251,2.052-15.251,8.927,0,4.194.854,17.648,0,20.406Z"/>
      <path class="cls-5" d="M736.642,633.573c.882,9.7-6.906,19.675-17.232,15.759-2.373-.9-22.606-17.677-22.605-19.161l4.356-4.355,19.196,16.734c8.207,3.39,13.358-4.379,10.978-11.95-1.739-5.533-16.118-12.683-18.572-17.444-.99-1.921,1.909-4.391,3.812-4.779l26.86,22.799-3.532,4.274-3.262-1.877Z"/>
      <path class="cls-17" d="M791.028,542.277l-1.497,5.845c-4.869.764-20.249-8.929-26.314-9.467-4.618-.409-7.864,5.534-6.982,9.663,1.942,9.092,18.947,11.253,25.959,15.405l-.892,5.691-33.975-12.622.975-5.82,3.871.973c-4.583-32.021,22.418-15.285,38.855-9.669Z"/>
      <path class="cls-17" d="M242.183,573.108c-.253-.147-2.24-3.679-2.153-4.123,6.904-6.155,18.462.614,20.73,8.395,5.484,18.818-23.088,32.258-34.325,17.804-5.226-6.722-5.066-16.943,3.365-20.888,5.879,4.924-1.398,7.169-1.138,11.999.85,15.8,29.285,7.136,26.89-6.59-1.563-8.956-10.571-4.975-13.368-6.597Z"/>
      <path class="cls-5" d="M271.114,653.002c-1.132.777-5.796-3.504-5.43-4.901l15.161-25.213-27.704,10.403-4.362-5.532c6.248-.696,32.443-13.212,36.313-12.455,1.266.248,2.941,2.816,4.067,3.723l.053,1.913-18.098,32.062Z"/>
      <path class="cls-4" d="M357.624,864.846c-.283-2.086.044-3.303,1.381-4.934,3.675-4.481,20.608-11.083,26.825-15.935,2.583-2.016,8.074-7.671,10.099-10.308,3.442-4.481,4.661-8.833,7.37-13.523,1.45,3.462,4.288,7.165,4.81,11.223-.257,4.73-29.235,23.481-34.647,26.478-5.5,3.046-10.18,4.672-15.839,6.998Z"/>
      <path class="cls-5" d="M370.277,163.285l9.852,23.13,6.709.585.77,4.308c-3.564,1.457-6.292,3.335-10.115,1.14-4.55-2.613-11.076-24.617-13.637-25.141-2.12-.433-4.31,2.746-6.19-2.614l3.779-2.991c-.962-3.397-3.811-6.174-2.747-10.015l4.181-.908,4.461,7.196,5.865-.13c2.334,3.044.789,5.669-2.928,5.44Z"/>
      <polygon class="cls-7" points="821.187 452.824 821.186 458.665 771.612 456.722 771.613 450.881 821.187 452.824"/>
      <polygon class="cls-7" points="822.158 434.361 822.158 440.202 771.613 441.174 771.613 435.333 822.158 434.361"/>
      <path class="cls-4" d="M694.844,748.238c.793-2.68,3.015-5.241,4.833-7.313,4.623-5.267,24.365-25.017,29.902-26.46,1.998-.521,4.061-.21,6.077-.232-.308,3.057-.409,5.819-2.912,7.769-.238.186-1.277.018-1.892.522-8.454,6.928-26.912,22.357-36.009,25.715Z"/>
      <path class="cls-5" d="M204.73,304.252c1.082-.35,2.228-.088,3.255.336l41.45,20.426c-1.184,5.579-2.165,4.511-6.458,2.914-13.063-4.86-26.082-13.065-39.265-18.069-2.758-.864-.833-5.008,1.018-5.606Z"/>
      <path class="cls-3" d="M298.908,657.46c-3.889,4.024-7.593,8.323-11.876,11.996l-4.012-3.324,1.712-4.374c-7.665.666-15.023-2.419-6.307-8.747,10.596,12.979,20.733-7.552,29.136-13.37l4.317,4.004c-4.558,4.362-8.608,9.301-12.97,13.814Z"/>
      <path class="cls-4" d="M781.336,194.347c6.448,11.073,17.299,20.017,22.97,31.941.804,1.691,1.841,2.799,1.326,4.985-.255-.226-1.625-.196-2.43-.933-12.373-11.322-22.975-25.409-33.516-38.438-.326-2.34.628-1.236,2.018-1.051,2.748.365,8.308,1.223,9.632,3.497Z"/>
      <path class="cls-8" d="M441.108,136.145l1.043,5.687c-16.057,2.953-5.428,21.965-4.804,32.55l-4.444,1.112-2.163-2.27-7.027-33.279,5.777-.95,1.508,3.831c2.786-3.5,4.726-8.039,10.111-6.681Z"/>
      <path class="cls-12" d="M724.665,595.763c1.463-.379,1.791.319,2.759.844,8.542,4.632,17.293,13.88,26.28,18.499,1.014,1.6-1.978,6.687-4.123,5.112l-27.611-19.181c-1.643-1.215,1.365-4.93,2.695-5.275Z"/>
      <path class="cls-12" d="M272.962,601.402c-5.227,1.24-26.349,19.395-29.39,18.509-1.372-.4-2.836-3.337-2.133-4.778,1.904-3.902,24.753-16.073,29.217-20.423l2.306,6.691Z"/>
      <path class="cls-18" d="M352.765,722.973c.247.156,1.109,3.991,3.887,3.887-14.028,7.8-34.523-8.617-24.708-23.303,7.943,2.472,3.301,5.579,4.498,10.947.862,3.866,5.82,7.138,9.462,8.038,1.845.456,6.571.248,6.861.432Z"/>
      <polygon class="cls-7" points="223.518 448.937 223.519 454.778 187.551 455.75 187.551 449.909 223.518 448.937"/>
      <path class="cls-4" d="M819.237,614.138c-9.423,4.538-11.193,19.695-20.408,24.293,3.03-7.948,11.567-29.69,16.525-35.464.359-.418,1.572-1.821,1.929-1.461.717,4.203,1.458,8.388,1.954,12.632Z"/>
      <path class="cls-21" d="M560.734,874.564c2.05-2.35,18.236-.252,22.347-.977,1.593-1.413-8.711-7.648-8.746-10.193l-32.065-.491,46.709-.548c1.484,1.033,1.437,10.784,0,11.784l-28.245.424Z"/>
      <path class="cls-4" d="M661.803,109.806c2.527,6.18,10.725,8.81,15.703,12.986,1.387,1.163,2.42.725,1.79,3.533-4.997-1.892-27.135-10.384-29.66-13.584-.57-.722-.586-1.071-.461-1.958.661-.582,10.743-.752,12.629-.977Z"/>
      <path class="cls-6" d="M963.552,285.691c.631.324.631.648,0,.972v-.972Z"/>
      <path class="cls-6" d="M995.622,484.897c.631.324.631.648,0,.972v-.972Z"/>
    </g>
  </g>
</svg>