<?xml version="1.0" encoding="UTF-8"?>
<svg xmlns="http://www.w3.org/2000/svg" viewBox="0 0 1465.58 330.811">
  <defs>
    <style>
      .cls-1, .cls-2 {
        fill: #fff;
      }

      .cls-2 {
        fill-rule: evenodd;
        stroke: #fff;
        stroke-linecap: round;
        stroke-linejoin: round;
        stroke-width: 2px;
      }
    </style>
  </defs>
  <g id="Layer_5" data-name="Layer 5">
    <path class="cls-2" d="M851.671,276.115l108.164-224.908c9.934-20.656,34.672-20.656,44.607,0l108.164,224.908c13.232,27.513-12.284,58.394-35.152,42.544l-82.466-57.158c-7.956-5.514-17.742-5.514-25.698,0l-82.466,57.158c-22.868,15.85-48.384-15.031-35.152-42.544Z"/>
  </g>
  <g id="Layer_4" data-name="Layer 4">
    <g>
      <path class="cls-1" d="M5.201,254.683c.579,41.524,14.739,68.746,37.856,68.746,24.274,0,36.99-27.683,36.99-71.515,0-41.985-10.403-64.593-36.412-86.739C18.206,143.49,6.357,125.496,6.357,80.281,6.357,41.986,17.628,9.229,43.925,9.229c26.008,0,37.278,29.528,37.278,71.514h-4.913c-.289-42.908-12.137-64.132-32.655-64.132-23.985,0-32.077,30.451-32.077,63.209,0,40.141,8.381,55.827,33.811,77.512,29.187,24.915,39.879,48.445,39.879,94.583,0,40.603-10.404,78.896-42.48,78.896S.578,290.21,0,254.683h5.201Z"/>
      <path class="cls-1" d="M184.941,269.908c0,23.069,0,41.524.289,56.75h-4.913c-.289-8.766-.867-39.678-.578-47.062-3.757,28.606-13.293,50.753-34.678,50.753-17.05,0-32.365-12.458-32.365-67.824V95.969h5.201v166.557c0,31.835,4.624,59.519,27.453,59.519,19.362,0,34.389-21.224,34.389-91.354V95.969h5.201v173.939Z"/>
      <path class="cls-1" d="M293.592,0v275.445c0,16.147,0,37.833.289,51.213h-4.913c-.289-5.536-.289-21.685-.289-46.139-3.468,24.915-12.137,49.83-34.389,49.83-23.696,0-39.012-29.529-39.012-120.42,0-87.201,17.339-118.114,41.613-118.114,23.696,0,29.476,26.3,31.788,43.832V0h4.913ZM220.48,209.93c0,74.743,10.115,112.114,34.1,112.114,27.742,0,34.1-41.062,34.1-113.96,0-69.208-4.046-108.425-32.077-108.425-22.83,0-36.123,32.298-36.123,110.271Z"/>
      <path class="cls-1" d="M402.535,0v275.445c0,16.147,0,37.833.289,51.213h-4.913c-.289-5.536-.289-21.685-.289-46.139-3.468,24.915-12.137,49.83-34.389,49.83-23.696,0-39.012-29.529-39.012-120.42,0-87.201,17.339-118.114,41.613-118.114,23.696,0,29.476,26.3,31.788,43.832V0h4.913ZM329.423,209.93c0,74.743,10.115,112.114,34.1,112.114,27.742,0,34.1-41.062,34.1-113.96,0-69.208-4.046-108.425-32.077-108.425-22.83,0-36.123,32.298-36.123,110.271Z"/>
      <path class="cls-1" d="M438.366,204.854c-.578,77.05,8.959,117.651,34.389,117.651,28.897,0,31.499-49.366,32.077-56.75h5.202c-.29,6-3.758,64.594-37.278,64.594-37.567,0-39.59-72.437-39.59-122.266,0-74.282,13.871-116.269,39.59-116.269,29.187,0,38.434,36.912,38.434,102.427v10.612h-72.823ZM505.987,197.472c0-55.365-5.202-97.812-33.232-97.812-28.319,0-33.811,60.901-34.389,97.812h67.621Z"/>
      <path class="cls-1" d="M541.817,161.945c0-35.064-.289-57.211-.289-65.977h5.202c0,3.229.578,26.299.289,46.138,3.757-25.837,13.293-50.291,35.544-50.291,16.761,0,32.943,14.304,32.943,70.593v164.25h-5.202v-160.56c0-42.908-8.38-66.439-28.32-66.439-26.297,0-34.966,41.062-34.966,94.583v132.416h-5.202v-164.713Z"/>
    </g>
    <path class="cls-1" d="M657.538,323.57V0h46.253c23.047,63.244,80.964,235.202,88.089,263.813h.993c-2.236-44.382-3.016-89.915-3.016-142.572V0h36.414v323.57h-44.796c-23.499-65.929-82.207-244.153-90.677-272.784h-.604c2.626,38.922,3.971,92.468,3.971,150.908v121.876h-36.628Z"/>
    <g>
      <path class="cls-1" d="M1139.677,169.442c0-37.429.163-59.655-.461-79.651h28.025c.461,6.531,1.085,19.756,1.085,36.209,8.491-28.132,28.507-38.707,48.716-39.302v36.228c-29.42.297-48.062,19.335-48.062,60.222v140.423h-29.303v-154.128Z"/>
      <path class="cls-1" d="M1234.587,89.791h27.277v-57.764h29.005v57.764h33.81v26.123h-33.81v161.478c0,12.256,2.276,24.425,17.164,24.425,4.447,0,11.632-.461,15.128-1.383v22.944c-6.81,2.661-16.875,3.285-24.607,3.285-21.091,0-36.689-9.384-36.689-43.922V115.914h-27.277v-26.123Z"/>
      <path class="cls-1" d="M1377.811,1.936v109.303c5.753-13.533,19.421-25.136,42.636-25.136,34.798,0,45.133,26.173,45.133,59.991v177.477h-29.303v-170.196c0-20.036-2.497-40.226-25.78-40.226-26.721,0-32.686,20.862-32.686,56.641v153.781h-29.303V1.936h29.303Z"/>
    </g>
  </g>
</svg>