<?xml version="1.0" encoding="UTF-8"?>
<svg id="Layer_2" data-name="Layer 2" xmlns="http://www.w3.org/2000/svg" viewBox="0 0 3000 2934.732">
  <defs>
    <style>
      .cls-1 {
        fill: #fff;
      }
    </style>
  </defs>
  <path class="cls-1" d="M3000,1480.154l-427.915,58.515c-14.996,317.966-173.399,619.409-422.846,814.119-178.683,139.475-397.427,221.919-624.941,233.857l-51.069,329.444v-328.147l-13.977-.012c-.965,112.832,2.339,226.171-2.316,338.655-.117,2.829,1.76,8.653-2.303,8.111l-49.012-348.959c-544.178-28.334-982.939-452.707-1040.219-992.722-1.119-10.55-1.477-56.764-5.227-61.084l-334.585-49.45h335.145l.012-11.649L0,1466.214l362.739-51.554c25.343-550.171,489.998-1013.898,1040.422-1037.895L1459.265,0v374.693h13.964V27.927l53.505,347.954c237.004,12.836,463.749,102.233,645.821,252.541,233.601,192.846,381.255,480.098,399.237,784.21l428.207,58.212v9.309ZM2404.154,1861.822c129.211-317.286,86.494-682.816-109.782-961.898-308.497-438.647-908.752-562.11-1365.556-274.851-354.214,222.746-535.717,642.382-453.359,1055.711,1.497,7.514,15.388,71.666,19.104,71.615,91.246-81.878,156.008-187.499,230.654-283.64,11.715-15.088,66.805-87.211,79.06-90.836,16.459-4.869,79.557-7.059,88.223-14.181l354.131-453.965c9.527-1.562,40.821,35.788,48.588,44.377,47.931,53.005,89.675,111.732,138.327,163.993,7.764,2.875,66.274-10.02,80.527-10.417,5.037-.14,7.048-.402,11.659,2.269,7.019,4.066,24.735,26.358,31.23,33.919,24.054,28.003,44.735,59.114,68.682,87.25,24.615,28.921,51.837,56.222,77.978,83.748-9.356-90.364-20.637-181.655-40.279-270.385-1.008-4.553-1.864-14.82-4.495-17.637-3.654-3.913-22.949-7.907-24.787-13.76,4.82-55.277,27.734-20.942,54.66-17.259,16.207,2.217,57.978,3.184,68.094-10.63,5.795-7.914,31.85-78.221,28.273-82.25-20.677,10.006-24.286-13.146-41.883-13.99,9.928-18.766-21.586-37.88-22.787-50.373-.534-5.548,11.743-22.685,15.881-27.503,24.069-28.024,61.341-37.749,80.312,1.007,8.888,18.158,6.942,48.93,35.77,44.068,10.849-61.764,76.476-38.213,102.239-.542,14.541,21.262,64.131,123.777,67.277,146.837,5.081,37.246-11.261,50.446-41.012,67.129,5.828,16.942,8.485,35.297,6.683,53.265-1.729,17.235-13.804,34.431-13.927,51.235-.489,66.911,30.88,182.259,58.844,243.678,10.254,22.522,25.797,35.131,15.765,64.465l59.709,24.166c99.384,111.629,184.271,243.687,288.051,350.775,2.421,2.498,4.07,5.431,8.149,4.612ZM1727.161,1323.971c18.953-.064,42.64,2.625,60.284-5.548,9.409-4.359,10.768-7.016,7.494-16.813-8.344-24.974-31.226-52.366-41.827-79.216-6.146-15.565-18.431-52.498-12.732-67.417,10.493-27.467,55.774-48.495,77.149-64.798,28.405-21.664,15.763-46.145-1.051-70.837-19.833,12.471-22.403,33.83-49.091,36.988-30.976,3.665-53.523-5.81-82.352-13.695l42.127,281.336ZM1710.635,1445.251c1.241,55.343,11.327,110.826,4.273,166.025l-6.666,2.756-218.688-398.058-28.993-17.41c-4.664,8.547-30.744,43.989-40.862,38.564l-158.239-194.503c-4.298,43.388,27.053,93.36,12.733,134.938-8.9,25.843-22.031,23.129-7.82,54.454,9.606,21.173,81.315,116.246,81.093,123.641l-162.833,252.475c1.771,1.613,28.3-15.135,32.386-17.629,52.131-31.82,102.355-70.824,155.432-100.577,7.265-4.072,25.729-16.616,33.186-13.338,18.404,8.09,18.515,61.266,30.338,76.892l465.472,464.277-122.419-267.591,9.552-188.544,155.61,199.309,158.63,121.826c5.141.929,3.463-2.055,3.227-5.54-1.692-24.895-16.912-55.4-20.484-81.973-.47-3.499-1.688-6.506,3.29-5.602l231.547,132.674-280.331-330.569-10.584-2.224c-5.676,45.308-11.69,90.838-23.304,135l-5.434-.358-231.803-261.6-58.308-17.313ZM1852.904,1345.459l.902,6.629c19.357,22.483,32.921,49.193,50.423,72.943,5.882,7.982,24.816,34.221,32.193,37.623,15.775,7.275,36.919-15.504,43.605-28.203-.018-4.247-2.197-7.911-3.686-11.726-18.057-46.243-53.724-97.49-67.996-143.774-8.937-28.983-11.047-63.078-18.989-92.715l-3.228-3.896c-24.653,11.838-51.877-3.221-75.374,7.034,11.588,29.546,16.075,64.215,29.121,92.88,9.59,21.072,45.112,47.307,13.03,63.205ZM2899.922,1470.845h-325.835l-.011,9.299c39.954.256,79.984-.265,119.967-.086,58.929.265,117.489-1.249,176.762-4.582l29.116-4.631ZM926.268,1682.627l-82.579-202.416c-3.141,1.735-5.398,3.415-7.839,6.091-17.199,18.855-31.313,52.569-47.844,73.174l-85.121,146.424,117.498-78.309,105.885,55.037Z"/>
  <path class="cls-1" d="M2716.061,1577.916c-47.961,593.736-545.458,1111.472-1147.401,1142.665l18.624-118.664c426.627-37.897,801.201-344.368,944.953-743.536,6.806-18.899,14.315-40.165,19.731-59.398,18.344-65.139,21.562-133.648,38.246-199.139,4.728-5.882,65.104-17.098,76.536-18.886,16.229-2.539,33.301-6.788,49.311-3.043Z"/>
  <path class="cls-1" d="M1592.032,355.962l-23.363-125.553c77.221,6.385,153.74,18.005,228.57,37.891,497.52,132.211,872.291,588.518,917.847,1100.256-3.565,4.919-40.644.47-48.78-.398-11.869-1.267-71.925-9.396-76.993-16.102-4.263-5.64-12.435-57.93-14.493-69.29-15.739-86.909-24.325-149.675-57.827-233.086-148.468-369.646-523.248-664.325-924.961-693.717Z"/>
  <path class="cls-1" d="M1361.525,228.063c5.116,5.043-15.847,119.578-23.249,124.557-95.378,10.615-187.885,30.661-277.57,64.554-356.839,134.854-638.326,464.266-706.221,841.457-5.315,29.53-7.743,59.474-13.483,88.918l-112.092,25.44-9.045-2.166c-6.543-6.515.162-43.486,1.557-54.413,14.098-110.437,48.273-226.993,92.349-328.894C495.081,568.332,902.459,264.195,1361.525,228.063Z"/>
  <path class="cls-1" d="M341.799,1603.817c36.465,408.013,321.903,769.894,696.281,924.705,35.031,14.486,75.219,29.396,111.646,39.632,62.487,17.559,127.746,20.131,190.785,34.971,14.275,38.977,14.598,81.488,21.001,122.104-591.884-43.403-1108.305-547.313-1138.094-1145.009l118.38,23.597Z"/>
  <path class="cls-1" d="M541.427,463.298l38.22,38.127,1.942,6.62-86.944,87.905c-6.758,5.138-20.258-4.877-25.636-9.525-6.889-5.954-14.097-15.625-14.64-24.993-1.829-31.543,68.717-74.105,87.058-98.134Z"/>
  <path class="cls-1" d="M517.809,2383.19l68.436,71.401c1.308,4.968-20.354,25.989-25.299,29.844-28.421,22.15-43.496-19.193-62.515-35.297.774-14.151,24.739-29.084,27.099-39.754,2.541-11.489-3.802-16.703-7.72-26.194Z"/>
  <path class="cls-1" d="M2382.544,456.396c5.48-1.434,16.356,11.612,20.512,16.011,15.499,16.406,38.705,43.095,12.598,61.536-29.611,20.917-53.596-20.334-74.264-37.067l41.155-40.48Z"/>
  <path class="cls-1" d="M1049.044,175.093c30.242-5.273,37.199,29.576,20.435,48.379-28.502,31.968-54.385-42.46-20.435-48.379Z"/>
  <path class="cls-1" d="M2899.922,1470.845l-29.116,4.631c-59.273,3.333-117.834,4.847-176.762,4.582-39.983-.18-80.014.342-119.967.086l.011-9.299h325.835Z"/>
</svg>